<?xml version="1.0" encoding="utf-8"?>
<!-- Generator: Adobe Illustrator 27.5.0, SVG Export Plug-In . SVG Version: 6.00 Build 0)  -->
<svg version="1.1" xmlns="http://www.w3.org/2000/svg" xmlns:xlink="http://www.w3.org/1999/xlink" x="0px" y="0px"
	 viewBox="0 0 500 500" style="enable-background:new 0 0 500 500;" xml:space="preserve">
<g id="BACKGROUND">
	<rect style="fill:#FFFFFF;" width="500" height="500"/>
</g>
<g id="OBJECTS">
	<g>
		<g>
			<path style="opacity:0.4196;fill:#E4F0F6;" d="M440.989,337.91c5.529-34.303-15.422-71.058-47.754-83.78
				c-29.137-11.465-63.363-4.562-91.822-17.621c-16.098-7.387-28.76-20.48-40.88-33.396c-12.12-12.916-24.461-26.224-40.248-34.255
				c-15.787-8.031-36.05-9.779-50.572,0.361c-11.625,8.117-17.469,21.983-23.562,34.785c-6.093,12.802-14.04,26.185-27.303,31.197
				c-9.907,3.743-21.197,2.112-31.157,5.71c-11.465,4.142-19.719,15.041-22.52,26.905c-5.515,23.361,8.809,47.841,28.66,61.336
				c19.851,13.495,44.198,18.282,67.872,22.245c54.947,9.199,110.45,15.599,166.152,16.629c25.728,0.476,53.476-0.863,73.791-16.657
				"/>
			<path style="fill:#A8D9C2;" d="M445.595,381.884c5.837-5.364,11.677-10.982,14.971-17.871c3.294-6.889,3.606-15.388-1.273-21.473
				c-4.879-6.086-15.741-8.247-21.901-3.182c2.587-8.614,3.624-18.103-0.507-26.218c-4.13-8.115-14.772-14.033-24.194-11.18
				c-1.711-10.008-10.191-18.832-20.973-21.825c-6.555-1.819-15.345-0.627-17.732,5.144c-4.52-6.339-13.156-10.113-21.506-9.398
				c-8.35,0.714-16.036,5.884-19.139,12.874c-4.864-5.463-15.057-4.468-20.88,0.179c-5.823,4.648-8.385,11.667-13.814,17.193
				c-2.345-4.963-8.04-8.504-14.044-8.731c-6.004-0.227-12.011,2.871-14.814,7.639c-2.336-3.269-6.475-5.237-10.715-6.015
				c-4.241-0.778-8.626-0.498-12.934-0.118c-3.671,0.323-7.456,0.752-10.637,2.428c-3.181,1.676-5.618,4.928-7.416,6.759
				c-4.14-6.531-8.529-13.305-15.518-17.445c-6.989-4.14-17.389-4.69-23.062,0.838c-2.049-6.744-8.442-12.273-16.029-13.864
				c-7.587-1.591-16.05,0.823-21.219,6.053c-4.297-4.893-12.281-6.863-18.763-4.629s-10.942,8.492-12.469,15.177
				c-5.484-0.303-11.412-0.456-15.968,2.299c-3.55,2.146-5.693,5.794-6.643,9.539c-0.95,3.744-0.837,7.631-3.546,11.605
				c-8.143-1.059-16.798,1.972-21.988,7.7c-5.19,5.728-6.729,13.947-5.033,21.378c-4.184-0.427-8.426-0.853-12.589-0.29
				c-4.164,0.563-8.312,2.242-10.802,5.288c-3.021,3.695-0.929,17.559-0.582,18.198"/>
			<ellipse style="fill:#E4F0F6;" cx="250" cy="381.884" rx="222.684" ry="37.289"/>
			<g>
				<path style="fill:#FFC384;" d="M337.288,214.586c-0.118-2.876,0.28-6.473,4.131-7.539c-2.706-1.182-4.118-3.917-3.842-6.857
					c-0.544,2.942-1.901,6.206-5.538,6.321C336.361,207.629,337.213,211.813,337.288,214.586z"/>
				<path style="fill:#FFC384;" d="M79.977,103.059c-0.118-2.876,0.28-6.473,4.131-7.539c-2.706-1.182-4.118-3.917-3.842-6.857
					c-0.544,2.942-1.901,6.206-5.538,6.321C79.049,96.103,79.902,100.287,79.977,103.059z"/>
				<path style="fill:none;stroke:#FFC384;stroke-linecap:round;stroke-linejoin:round;stroke-miterlimit:10;" d="M316.969,234.048
					c-0.081,2.162-1.9,3.85-4.062,3.769c-2.162-0.081-3.85-1.9-3.769-4.062c0.081-2.162,1.9-3.85,4.062-3.769
					C315.363,230.066,317.05,231.885,316.969,234.048z"/>
				<path style="fill:none;stroke:#FFC384;stroke-linecap:round;stroke-linejoin:round;stroke-miterlimit:10;" d="M401,84.892
					c-0.081,2.162-1.9,3.85-4.062,3.769c-2.162-0.081-3.85-1.9-3.769-4.062c0.081-2.162,1.9-3.85,4.062-3.769
					C399.394,80.91,401.082,82.729,401,84.892z"/>
				<path style="fill:none;stroke:#FFC384;stroke-linecap:round;stroke-linejoin:round;stroke-miterlimit:10;" d="M83.333,249.497
					c-0.081,2.162-1.9,3.85-4.062,3.769c-2.162-0.081-3.85-1.9-3.769-4.062c0.081-2.162,1.9-3.85,4.062-3.769
					C81.727,245.515,83.414,247.334,83.333,249.497z"/>
				<path style="fill:none;stroke:#FFC384;stroke-linecap:round;stroke-linejoin:round;stroke-miterlimit:10;" d="M96.988,125.55
					c-0.081,2.162-1.9,3.85-4.062,3.769c-2.162-0.081-3.85-1.9-3.769-4.062c0.081-2.162,1.9-3.85,4.062-3.769
					C95.382,121.569,97.069,123.387,96.988,125.55z"/>
				<path style="fill:#FFC384;" d="M279.808,240.009c-0.041,1.081-0.859,1.928-1.829,1.892c-0.969-0.036-1.722-0.942-1.682-2.023
					c0.041-1.081,0.859-1.928,1.828-1.892C279.096,238.022,279.848,238.928,279.808,240.009z"/>
				<path style="fill:#FFC384;" d="M381.696,112.911c-0.04,1.081-0.859,1.928-1.828,1.892s-1.722-0.942-1.682-2.023
					c0.041-1.081,0.859-1.928,1.828-1.892C380.984,110.924,381.737,111.83,381.696,112.911z"/>
				<g>
					<path style="fill:#FFC384;" d="M53.649,275.83c-0.792-3.171,0.438-7.269,4.019-7.988c0,0-0.056,0.779-0.056,0.779
						c-2.701-1.329-4.044-4.362-3.905-7.258l0.454,0.063c-0.239,3.11-2.161,6.825-5.747,6.812c0,0,0.117-1.049,0.117-1.049
						c0.899,0.234,1.764,0.648,2.505,1.228C53.202,270.153,53.996,273.183,53.649,275.83L53.649,275.83z M53.646,275.73
						c-0.355-1.617-0.664-3.337-1.582-4.754c-0.86-1.412-2.242-2.339-3.799-2.754c-0.582-0.139-0.475-1.042,0.117-1.049
						c3.152,0.006,4.701-3.088,5.329-5.829c0.039-0.292,0.5-0.235,0.454,0.063c-0.492,2.716,1.168,5.597,3.78,6.455
						c0.353,0.117,0.342,0.658-0.009,0.764c-0.715,0.236-1.387,0.562-1.956,1.015c-1.482,1.176-1.969,3.148-2.173,4.969
						l-0.057,0.583C53.752,275.358,53.653,275.487,53.646,275.73L53.646,275.73z"/>
				</g>
				<path style="fill:#FFC384;" d="M298.569,195.645c-0.04,1.081-0.859,1.928-1.828,1.892c-0.969-0.036-1.722-0.942-1.682-2.024
					c0.041-1.081,0.859-1.928,1.828-1.892C297.857,193.658,298.61,194.564,298.569,195.645z"/>
				<path style="fill:#FFC384;" d="M74.538,281.932c-0.041,1.081-0.859,1.928-1.828,1.892c-0.969-0.036-1.722-0.942-1.682-2.023
					c0.04-1.081,0.859-1.928,1.828-1.892C73.826,279.945,74.578,280.851,74.538,281.932z"/>
				<path style="fill:#FFC384;" d="M104.999,97.886c-0.04,1.081-0.859,1.928-1.828,1.892c-0.969-0.036-1.722-0.942-1.682-2.024
					c0.041-1.081,0.859-1.928,1.828-1.892S105.04,96.804,104.999,97.886z"/>
			</g>
			<g>
				<path style="opacity:0.651;fill:#BEE9E9;" d="M196.744,142.132c14.752,0.455,47.096,1.304,65.522,0.656
					c4.918-0.173,8.359-5.009,6.796-9.675c-0.515-1.537-1.331-2.968-2.432-4.163c-3.302-3.583-8.93-4.788-13.409-2.87
					c-0.41-6.298-5.671-11.94-11.925-12.789c-6.254-0.849-12.828,3.186-14.903,9.147c-4.509-2.893-10.339-3.628-15.425-1.944
					c-5.086,1.684-9.326,5.752-11.218,10.765c-2.331-0.43-4.527,1.212-6.318,3.326C190.949,137.515,192.905,142.013,196.744,142.132
					z"/>
				<path style="opacity:0.651;fill:#BEE9E9;" d="M52.433,223.021c26.406-0.05,52.236,1.82,78.668,1.683
					c3.291-0.017,6.023-2.542,6.365-5.815c0.261-2.494,0.329-4.993-0.046-7.467c-0.665-4.385-2.966-8.759-6.908-10.79
					c-3.942-2.032-9.56-0.913-11.578,3.036c-0.641-6.965-6.664-13.049-13.622-13.762c-6.957-0.713-14.089,4.024-16.129,10.714
					c-3.548-4.507-10.165-6.295-15.5-4.189c-5.335,2.107-8.945,7.934-8.456,13.649c-3.875-1.728-8.65-1.243-12.099,1.228
					c-2.026,1.451-3.231,2.495-4.583,4.735C46.695,219.104,48.856,223.028,52.433,223.021z"/>
				<path style="opacity:0.651;fill:#BEE9E9;" d="M368.971,203.218l77.651,4.049c1.866,0.097,3.622-1.006,4.249-2.766
					c1.671-4.688,1.495-10.092-1.461-14.019c-3.595-4.776-11.797-5.78-15.492-1.081c3.095-4.511,1.641-11.278-2.647-14.675
					s-10.667-3.499-15.466-0.872c-4.799,2.626-8.039,7.619-9.292,12.945c-2.532-4.682-8.047-7.565-13.337-6.971
					c-5.29,0.594-10.029,4.628-11.459,9.755c-5.551-2.473-12.67,2.04-14.925,10.62C366.405,201.674,367.451,203.139,368.971,203.218
					z"/>
			</g>
			<g>
				<g>
					<g>
						<path style="fill:#FFC384;" d="M397.839,391.745c1,3.038,2,6.076,3,9.114"/>
						<path style="fill:#00BCAD;" d="M397.839,391.745c1.323,2.93,2.327,5.97,3,9.114
							C399.514,397.93,398.516,394.888,397.839,391.745L397.839,391.745z"/>
					</g>
					<g>
						<path style="fill:#FFC384;" d="M401.599,392.306c0.363,2.086,0.726,4.172,1.088,6.259"/>
						<path style="fill:#00BCAD;" d="M401.599,392.306c0.698,2.026,1.064,4.116,1.089,6.259
							C401.987,396.54,401.626,394.448,401.599,392.306L401.599,392.306z"/>
					</g>
					<g>
						<path style="fill:#00BCAD;" d="M408.68,390.541c-1.311,3.209-2.127,6.481-2.485,9.929
							C405.848,397.028,406.756,393.414,408.68,390.541L408.68,390.541z"/>
					</g>
				</g>
				<g>
					<g>
						<path style="fill:#FFC384;" d="M219.406,395.583c1.065,3.071,2.131,6.142,3.196,9.213"/>
						<path style="fill:#00BCAD;" d="M219.406,395.583c1.386,2.958,2.456,6.031,3.196,9.213
							C221.213,401.84,220.15,398.765,219.406,395.583L219.406,395.583z"/>
					</g>
					<g>
						<path style="fill:#FFC384;" d="M224.483,394.455c0.188,3.259,0.376,6.518,0.564,9.777"/>
						<path style="fill:#00BCAD;" d="M224.483,394.455c0.528,3.238,0.719,6.5,0.564,9.777
							C224.516,400.995,224.331,397.733,224.483,394.455L224.483,394.455z"/>
					</g>
					<g>
						<path style="fill:#00BCAD;" d="M231.638,395.403c-1.532,2.917-2.537,5.951-3.06,9.203
							C228.392,401.325,229.527,397.921,231.638,395.403L231.638,395.403z"/>
					</g>
				</g>
				<g>
					<g>
						<path style="fill:#FFC384;" d="M327.242,370.918c0.82,2.039,1.641,4.079,2.461,6.118"/>
						<path style="fill:#00BCAD;" d="M327.242,370.918c1.135,1.91,1.96,3.953,2.461,6.118
							C328.565,375.127,327.745,373.082,327.242,370.918L327.242,370.918z"/>
					</g>
					<g>
						<path style="fill:#FFC384;" d="M330.74,370.394c0.506,2.175,1.012,4.351,1.517,6.526"/>
						<path style="fill:#00BCAD;" d="M330.74,370.394c0.837,2.096,1.346,4.275,1.517,6.526
							C331.417,374.825,330.913,372.645,330.74,370.394L330.74,370.394z"/>
					</g>
					<g>
						<path style="fill:#00BCAD;" d="M337.189,368.831c-1.364,2.382-1.902,5.004-1.595,7.731
							C334.563,374.01,335.235,370.768,337.189,368.831L337.189,368.831z"/>
					</g>
				</g>
				<g>
					<g>
						<path style="fill:#FFC384;" d="M118.213,375.02c0.82,2.039,1.641,4.079,2.461,6.118"/>
						<path style="fill:#00BCAD;" d="M118.213,375.02c1.135,1.91,1.96,3.953,2.461,6.118
							C119.536,379.229,118.717,377.185,118.213,375.02L118.213,375.02z"/>
					</g>
					<g>
						<path style="fill:#FFC384;" d="M121.711,374.497c0.506,2.175,1.012,4.351,1.517,6.526"/>
						<path style="fill:#00BCAD;" d="M121.711,374.497c0.837,2.096,1.346,4.275,1.518,6.526
							C122.389,378.927,121.885,376.747,121.711,374.497L121.711,374.497z"/>
					</g>
					<g>
						<path style="fill:#00BCAD;" d="M128.161,372.933c-1.364,2.382-1.902,5.004-1.595,7.731
							C125.535,378.112,126.207,374.87,128.161,372.933L128.161,372.933z"/>
					</g>
				</g>
				<g>
					<g>
						<path style="fill:#FFC384;" d="M53.089,379.123c0.82,2.039,1.641,4.079,2.461,6.118"/>
						<path style="fill:#00BCAD;" d="M53.089,379.123c1.135,1.91,1.96,3.952,2.461,6.118
							C54.412,383.332,53.592,381.287,53.089,379.123L53.089,379.123z"/>
					</g>
					<g>
						<path style="fill:#FFC384;" d="M56.586,378.599c0.506,2.175,1.012,4.351,1.517,6.526"/>
						<path style="fill:#00BCAD;" d="M56.586,378.599c0.837,2.096,1.347,4.275,1.518,6.526
							C57.264,383.03,56.76,380.849,56.586,378.599L56.586,378.599z"/>
					</g>
					<g>
						<path style="fill:#00BCAD;" d="M63.036,377.036c-1.364,2.382-1.902,5.004-1.595,7.731
							C60.41,382.215,61.082,378.973,63.036,377.036L63.036,377.036z"/>
					</g>
				</g>
			</g>
		</g>
		<g>
			<g>
				<g>
					<g>
						<path style="fill:none;stroke:#001741;stroke-miterlimit:10;" d="M324.014,310.673
							c36.631-11.268,73.745-20.966,111.207-29.057"/>
						<path style="fill:none;stroke:#001741;stroke-miterlimit:10;" d="M322.587,305.762
							c36.631-11.268,73.745-20.965,111.207-29.057"/>
						<path style="fill:none;stroke:#001741;stroke-miterlimit:10;" d="M325.799,297.978
							c36.631-11.268,67.124-17.783,104.585-25.874"/>
						<path style="fill:none;stroke:#001741;stroke-miterlimit:10;" d="M326.892,293.211c36.631-11.268,65.154-19.047,98.319-26.935
							"/>
						<path style="fill:none;stroke:#001741;stroke-miterlimit:10;" d="M332.132,285.041c36.631-11.268,54.014-16.123,87.179-24.011
							"/>
						<path style="fill:none;stroke:#001741;stroke-miterlimit:10;" d="M324.014,315.69c36.631-11.268,73.745-20.966,111.207-29.057
							"/>
						<path style="fill:none;stroke:#001741;stroke-miterlimit:10;" d="M325.075,320.754
							c36.883-11.628,74.252-21.635,111.971-29.985"/>
						<path style="fill:none;stroke:#001741;stroke-miterlimit:10;" d="M325.799,324.499c37.745-11.62,75.989-21.621,114.59-29.966"
							/>
						<path style="fill:none;stroke:#001741;stroke-miterlimit:10;" d="M325.799,329.672c37.745-11.62,75.989-21.621,114.59-29.966"
							/>
						<path style="fill:none;stroke:#001741;stroke-miterlimit:10;" d="M326.892,334.896c37.746-11.621,75.989-21.621,114.59-29.966
							"/>
						<path style="fill:none;stroke:#001741;stroke-miterlimit:10;" d="M326.892,339.482c37.746-11.62,75.989-21.621,114.59-29.966"
							/>
						<path style="fill:none;stroke:#001741;stroke-miterlimit:10;" d="M326.892,344.655c37.746-11.62,75.989-21.621,114.59-29.966"
							/>
						<path style="fill:none;stroke:#001741;stroke-miterlimit:10;" d="M326.892,349.879c37.746-11.62,75.989-21.621,114.59-29.966"
							/>
						<path style="fill:none;stroke:#001741;stroke-miterlimit:10;" d="M339.103,351.998c33.723-10.491,67.891-19.52,102.379-27.053
							"/>
						<path style="fill:none;stroke:#001741;stroke-miterlimit:10;" d="M342.816,356.591c33.723-10.491,64.178-17.928,98.666-25.462
							"/>
						<path style="fill:none;stroke:#001741;stroke-miterlimit:10;" d="M348.375,359.69c33.723-10.491,54.167-13.685,88.655-21.218"
							/>
						<path style="fill:none;stroke:#001741;stroke-miterlimit:10;" d="M358.992,363.403c26.03-7.082,41.81-9.237,68.429-14.322"/>
						<path style="fill:none;stroke:#001741;stroke-miterlimit:10;" d="M342.816,274.497c26.03-7.082,33.584-11.359,60.204-16.444"
							/>
					</g>
					<g>
						<path style="fill:none;stroke:#001741;stroke-miterlimit:10;" d="M385.358,366.772
							c-12.632-36.184-22.48-66.443-31.969-103.574"/>
						<path style="fill:none;stroke:#001741;stroke-miterlimit:10;" d="M379.621,366.169c-12.632-36.184-20.323-62.638-29.811-99.77
							"/>
						<path style="fill:none;stroke:#001741;stroke-miterlimit:10;" d="M372.991,367.686
							c-12.632-36.184-18.693-60.576-28.182-97.708"/>
						<path style="fill:none;stroke:#001741;stroke-miterlimit:10;" d="M368.186,366.772
							c-12.632-36.184-19.938-56.442-29.063-89.288"/>
						<path style="fill:none;stroke:#001741;stroke-miterlimit:10;" d="M359.826,361.843
							c-12.632-36.184-16.013-48.068-25.138-80.914"/>
						<path style="fill:none;stroke:#001741;stroke-miterlimit:10;" d="M389.696,366.772
							c-12.632-36.184-21.307-66.443-30.796-103.574"/>
						<path style="fill:none;stroke:#001741;stroke-miterlimit:10;" d="M394.187,365.435
							c-13.001-36.422-21.749-68.616-31.506-105.995"/>
						<path style="fill:none;stroke:#001741;stroke-miterlimit:10;" d="M399.687,362.514
							c-13.026-37.284-24.553-66.721-34.338-104.982"/>
						<path style="fill:none;stroke:#001741;stroke-miterlimit:10;" d="M404.249,363.915
							c-13.026-37.284-22.977-69.359-32.761-107.62"/>
						<path style="fill:none;stroke:#001741;stroke-miterlimit:10;" d="M409.29,361.843c-13.026-37.284-23.37-68.564-33.154-106.826
							"/>
						<path style="fill:none;stroke:#001741;stroke-miterlimit:10;" d="M413.364,360.198
							c-13.026-37.284-23.391-70.285-33.176-108.546"/>
						<path style="fill:none;stroke:#001741;stroke-miterlimit:10;" d="M417.805,359.7c-13.026-37.284-22.662-69.98-32.446-108.242"
							/>
						<path style="fill:none;stroke:#001741;stroke-miterlimit:10;" d="M423.105,356.84
							c-13.026-37.284-22.743-67.315-32.527-105.577"/>
						<path style="fill:none;stroke:#001741;stroke-miterlimit:10;" d="M426.475,352.368
							c-11.747-33.307-21.877-64.162-30.697-98.343"/>
						<path style="fill:none;stroke:#001741;stroke-miterlimit:10;" d="M430.925,348.486c-11.747-33.307-19.629-60.279-28.449-94.46
							"/>
						<path style="fill:none;stroke:#001741;stroke-miterlimit:10;" d="M433.814,342.815
							c-11.747-33.307-15.704-53.617-24.524-87.798"/>
						<path style="fill:none;stroke:#001741;stroke-miterlimit:10;" d="M437.127,332.066c-8.051-25.746-10.797-41.435-16.875-67.845
							"/>
						<path style="fill:none;stroke:#001741;stroke-miterlimit:10;" d="M352.938,360.198c-8.051-25.746-16.657-41.773-22.736-68.184
							"/>
					</g>
				</g>
				<g>
					<path style="fill:#6780D3;" d="M446.767,303.362c-1.237-13.135-6.802-25.914-15.988-35.385
						c-9.406-9.697-22.989-15.712-36.455-16.799c-13.466-1.087-25.604,2.03-37.313,8.768
						c-20.814,11.978-24.966,23.329-32.114,35.313c-8.329,13.966-27.46,28.612-42.68,34.335c-0.419,8.348,2.652,15.014,2.218,21.209
						c14.614-3.018,31.043-2.218,44.212,2.858c13.169,5.075,25.898,11.823,39.848,13.958c22.253,3.405,55.644-1.356,70.282-26.067
						C445.503,330.201,448.005,316.497,446.767,303.362z M438.746,327.426c-2.601,10.273-8.646,19.814-17.419,25.759
						c-12.01,8.14-27.526,12.091-41.987,10.921c-14.019-1.135-26.464-3.44-36.529-12.289
						c-14.218-12.501-18.866-39.744-12.011-57.392c6.855-17.648,23.432-30.631,41.8-35.218c15.987-3.993,34.143-1.677,46.787,8.889
						c8.611,7.196,13.091,12.112,18.667,27.67C441.683,305.896,441.347,317.152,438.746,327.426z"/>
				</g>
				<path style="fill:#6780D3;" d="M293.386,327.808c-40.961,6.554-81.922,13.107-122.883,19.661
					c-4.237,0.678-8.631,1.424-12.175,4.266c-3.544,2.841-5.97,8.424-4.474,13.381c1.174,3.888,4.449,6.41,7.763,7.214
					s6.706,0.189,10.017-0.428c36.406-6.783,72.812-13.565,109.218-20.348c4.264-0.794,8.76-1.714,12.011-5.111
					C296.113,343.045,297.384,336.271,293.386,327.808z"/>
				<g>
					<path style="fill:#FFD272;" d="M393.631,365.901c15.107-1.513,30.531-9.675,39.901-21.621c0.583-0.743,1.17-1.56,1.232-2.502
						c0.062-0.942-0.643-1.994-1.586-1.937c-8.767,12.923-25.462,22.85-41.035,24.004
						C391.807,364.824,392.69,364.877,393.631,365.901z"/>
					<path style="fill:#FFD272;" d="M332.52,290.515c-5.039,8.658-4.633,27.758-1.49,37.27c3.142,9.512,10.208,19.427,16.235,27.434
						c-8.337,0.898-39.915-19.721-41.019-22.147C304.6,329.453,326.681,296.355,332.52,290.515z"/>
					<path style="fill:#FFD272;" d="M412.368,260.744c-7.648-5.59-25.892-4.373-35.687-3.605c-1.53,0.12-9.109,1.851-7.72,3.095
						c10.78-0.846,33.544-2.267,43.103,2.788C412.595,262.541,412.628,261.815,412.368,260.744z"/>
				</g>
			</g>
			<g>
				<ellipse style="fill:#D4D5D8;" cx="155.675" cy="307.474" rx="46.15" ry="45.885"/>
				<g>
					<defs>
						<ellipse id="SVGID_1_" cx="155.675" cy="307.474" rx="46.15" ry="45.885"/>
					</defs>
					<clipPath id="SVGID_00000057149882850188087120000006514803583244989830_">
						<use xlink:href="#SVGID_1_"  style="overflow:visible;"/>
					</clipPath>
					<g style="clip-path:url(#SVGID_00000057149882850188087120000006514803583244989830_);">
						<path style="fill:#001741;" d="M153.895,288.84c0,0-3.437,7.744-4.845,19.412c-0.135,1.122-17.694,2.295-17.694,2.295
							s-6.176-11.45-6.527-17.349c-0.052-0.872,13.775-12.427,13.775-12.427L153.895,288.84z"/>
						<polygon style="fill:#001741;" points="129.828,266.536 142.76,267.86 159.909,263.244 160.445,258.02 						"/>
						<path style="fill:#001741;" d="M175.279,272.434c-0.744-0.106-3.924,12.757-3.924,12.757l12.862,14.726
							c0,0,9.709-4.196,9.682-4.994c-0.312-9.202-5.111-17.087-5.111-17.087S180.31,273.154,175.279,272.434z"/>
						<polygon style="fill:#001741;" points="113.713,282.339 114.275,293.272 107.419,306.21 						"/>
						<path style="fill:#001741;" d="M162.097,321.948l-5.646,15.552c0,0,14.114,5.657,14.986,5.152
							c10.566-6.117,14.3-12.745,14.3-12.745l-6.398-12.335L162.097,321.948z"/>
						<path style="fill:#001741;" d="M125.128,324.474c0,0,5.935,9.351,13.35,15.104c0.697,0.541-5.387,12.124-5.387,12.124
							l-22.401-20.062L125.128,324.474z"/>
						<polygon style="fill:#001741;" points="203.838,304.923 197.621,323.384 199.833,328.002 						"/>
					</g>
					<g style="clip-path:url(#SVGID_00000057149882850188087120000006514803583244989830_);">
						<g>
							<path style="fill:#001741;" d="M148.03,307.348c5.317,4.626,10.147,9.724,14.463,15.293
								C157.172,318.019,152.35,312.913,148.03,307.348L148.03,307.348z"/>
						</g>
						<g>
							<path style="fill:#001741;" d="M184.221,298.354c0.658,7.473-1.407,15.296-5.68,21.464
								C181.583,312.94,183.469,305.837,184.221,298.354L184.221,298.354z"/>
						</g>
						<g>
							<path style="fill:#001741;" d="M152.747,289.033c6.317-2.614,13.148-4.026,19.985-4.112
								C166.043,286.385,159.469,287.732,152.747,289.033L152.747,289.033z"/>
						</g>
						<g>
							<path style="fill:#001741;" d="M159.092,262.7c6.259,2.192,12.064,5.777,16.816,10.405
								C171.036,270.041,164.08,265.702,159.092,262.7L159.092,262.7z"/>
						</g>
						<g>
							<path style="fill:#001741;" d="M143.068,266.792c-1.423,5.467-3.006,10.743-4.846,16.085
								C138.705,277.257,140.372,271.745,143.068,266.792L143.068,266.792z"/>
						</g>
						<g>
							<path style="fill:#001741;" d="M113.123,293.569c4.137-0.754,8.37-0.652,12.463,0.315
								C121.396,294.295,117.289,294.186,113.123,293.569L113.123,293.569z"/>
						</g>
						<g>
							<path style="fill:#001741;" d="M124.769,326.371c0.422-6.342,3.141-12.625,7.486-17.265
								C129.033,314.607,126.576,320.258,124.769,326.371L124.769,326.371z"/>
						</g>
						<g>
							<path style="fill:#001741;" d="M136.049,339.568c7.078-0.181,13.944-0.826,20.934-1.951
								C150.366,340.09,143.009,340.769,136.049,339.568L136.049,339.568z"/>
						</g>
						<g>
							<path style="fill:#001741;" d="M171.641,341.52c-0.242,4.888-2.35,9.75-5.766,13.257
								C168.159,350.427,170.021,346.159,171.641,341.52L171.641,341.52z"/>
						</g>
						<g>
							<path style="fill:#001741;" d="M182.978,330.741c6.766-2.716,12.921-6.27,18.666-10.759
								C196.888,325.485,190.121,329.38,182.978,330.741L182.978,330.741z"/>
						</g>
					</g>
				</g>
			</g>
			<g>
				<path style="fill:#FFA3A6;" d="M408.318,336.839c-3.865-8.401-11.487-14.494-19.531-19.057
					c-16.202-9.193-35.366-13.374-53.818-10.815c-16.195,2.246-31.715,9.817-44.289,21.792c-3.204,3.051-3.699,8.017-1.222,11.683
					c10.829,16.029,28.207,27.593,47.255,31.111c21.507,3.972,44.688-2.398,61.146-16.801
					C403.692,349.645,410.905,342.462,408.318,336.839z"/>
				<g>
					<defs>
						<path id="SVGID_00000155838459224237265440000017971388039352772542_" d="M408.318,336.839
							c-3.865-8.401-11.487-14.494-19.531-19.057c-16.202-9.193-35.366-13.374-53.818-10.815
							c-16.195,2.246-31.715,9.817-44.289,21.792c-3.204,3.051-3.699,8.017-1.222,11.683c10.829,16.029,28.207,27.593,47.255,31.111
							c21.507,3.972,44.688-2.398,61.146-16.801C403.692,349.645,410.905,342.462,408.318,336.839z"/>
					</defs>
					<clipPath id="SVGID_00000072246670141600998480000013619481955065768585_">
						<use xlink:href="#SVGID_00000155838459224237265440000017971388039352772542_"  style="overflow:visible;"/>
					</clipPath>
					<path style="clip-path:url(#SVGID_00000072246670141600998480000013619481955065768585_);fill:#FFFFFF;" d="M393.011,313.668
						c-7.489,14.656-8.371,32.536-2.295,47.655c-3.449,2.021-7.139,3.632-11.095,4.846c-4.309-4.773-8.13-14.81-7.367-30.857
						c0.215-4.526,3.232-21.07,8.332-26.684C384.321,309.316,388.017,310.218,393.011,313.668z"/>
					<path style="clip-path:url(#SVGID_00000072246670141600998480000013619481955065768585_);fill:#FFFFFF;" d="M318.985,307.557
						c-3.461,3.273-5.565,7.774-6.701,12.401c-1.136,4.626-1.373,9.419-1.589,14.178c-0.25,5.507-0.478,11.034-0.002,16.527
						c0.476,5.493,1.679,10.98,4.158,15.905c0,0-12.429-5.515-12.409-5.695c-1.122-10.408-2.245-20.903-1.228-31.322
						c0.359-3.676,0.999-7.376,2.543-10.732C306.519,312.821,312.242,308.275,318.985,307.557z"/>
				</g>
				<g>
					<path style="fill:#FFFFFF;" d="M369.925,326.973c-18.455-2.354-39.007-2.984-55.147-1.111c0.056,0.695-0.418,2.186-0.362,2.881
						c9.872-1.146,37.448-2.149,55.786,1.459C370.478,329.129,370.516,327.996,369.925,326.973z"/>
					<path style="fill:#FFFFFF;" d="M317.739,323.396c-0.504,2.174-0.94,5.895-0.737,8.378c-0.748,0.151-1.496,0.302-2.244,0.453
						c-0.503-2.98-0.381-5.699,0.36-8.891C315.927,323.172,316.761,323.387,317.739,323.396z"/>
					<path style="fill:#FFFFFF;" d="M324.214,322.735c-0.372,2.862-0.442,6.133-0.442,8.516c-0.561,0-1.795,0.08-2.66-0.018
						c-0.177-2.745,0.004-5.831,0.538-8.53C322.485,322.636,323.369,322.461,324.214,322.735z"/>
					<path style="fill:#FFFFFF;" d="M331.503,322.328c-0.491,2.853-0.709,5.779-0.897,8.691c-0.839,0.076-1.678,0.151-2.517,0.227
						c-0.192-2.957,0.038-5.942,0.683-8.835C329.388,322.211,330.806,322.298,331.503,322.328z"/>
					<path style="fill:#FFFFFF;" d="M338.517,322.328c-0.555,2.837-0.694,5.669-0.694,8.917c-0.962,0.118-1.764-0.101-2.726,0.017
						c-0.153-3.112,0.348-6.128,0.806-8.934C336.704,322.146,337.9,322.256,338.517,322.328z"/>
					<path style="fill:#FFFFFF;" d="M346.343,322.495c-0.219,2.837-0.492,4.985-0.706,7.762c-0.018,0.234,0.027,0.511-0.158,0.655
						c-0.123,0.096-0.292,0.098-0.448,0.097c-0.829-0.008-1.658-0.017-2.486-0.025c0.191-2.476,0.535-6.563,0.684-8.488
						C343.976,322.21,344.947,322.141,346.343,322.495z"/>
					<path style="fill:#FFFFFF;" d="M353.782,322.931c-0.008,3.11,0.014,6.438-0.289,9.072c-1.032-0.058-2.064-0.116-3.097-0.174
						c0.346-3.007,0.518-5.714,0.409-8.738C351.503,322.773,352.846,322.878,353.782,322.931z"/>
					<path style="fill:#FFFFFF;" d="M361.553,323.294c0.251,3.099-0.134,6.012-0.518,9.097c-0.874-0.172-1.771-0.232-2.66-0.178
						c0.333-2.672,0.555-6.389,0.334-9.12C359.454,323.065,360.518,323.25,361.553,323.294z"/>
					<path style="fill:#FFFFFF;" d="M369.383,324.164c0.285,2.247-0.064,6.324-0.6,8.774c0,0-2.725,0.096-2.785,0.044
						c0.501-3.054,0.717-6.154,0.642-9.248C367.314,323.748,368.305,323.816,369.383,324.164z"/>
				</g>
				<g>
					<g>
						<path d="M317.472,325.595c0.072,1.101-0.021,2.055-0.313,3.12C316.759,327.692,316.88,326.518,317.472,325.595
							L317.472,325.595z"/>
					</g>
					<g>
						<path d="M321.206,325.248c0.159,1.019,0.095,1.925-0.215,2.909C320.612,327.203,320.693,326.137,321.206,325.248
							L321.206,325.248z"/>
					</g>
					<g>
						<path d="M324.149,325.143c0.299,0.966,0.26,1.932-0.123,2.869C323.724,327.046,323.768,326.08,324.149,325.143
							L324.149,325.143z"/>
					</g>
					<g>
						<path d="M328.235,324.813c0.094,1.103,0.011,2.069-0.281,3.137C327.555,326.924,327.662,325.754,328.235,324.813
							L328.235,324.813z"/>
					</g>
					<g>
						<path d="M331.245,324.792c0.115,1.054,0.052,1.967-0.215,2.993C330.607,326.819,330.691,325.689,331.245,324.792
							L331.245,324.792z"/>
					</g>
					<g>
						<path d="M335.424,324.789c0.025,1.015-0.093,1.854-0.405,2.82C334.635,326.676,334.796,325.578,335.424,324.789
							L335.424,324.789z"/>
					</g>
					<g>
						<path d="M338.39,324.791c0.064,1.089-0.077,2.048-0.46,3.07C337.624,326.819,337.795,325.698,338.39,324.791L338.39,324.791z"
							/>
					</g>
					<g>
						<path d="M342.898,324.871c0.072,0.999-0.012,1.831-0.292,2.793C342.192,326.758,342.309,325.672,342.898,324.871
							L342.898,324.871z"/>
					</g>
					<g>
						<path d="M346.259,325.125c0.367,0.892,0.276,1.9-0.251,2.708C345.861,326.874,345.941,326.041,346.259,325.125
							L346.259,325.125z"/>
					</g>
					<g>
						<path d="M350.693,325.125c0.451,0.885,0.386,1.974-0.172,2.796C350.405,326.928,350.459,326.097,350.693,325.125
							L350.693,325.125z"/>
					</g>
					<g>
						<path d="M354.067,325.349c0.425,0.814,0.401,1.784-0.071,2.572C353.786,327.021,353.811,326.237,354.067,325.349
							L354.067,325.349z"/>
					</g>
					<g>
						<path d="M358.603,325.823c0.481,1.042,0.463,2.271-0.057,3.295C358.383,327.975,358.404,326.96,358.603,325.823
							L358.603,325.823z"/>
					</g>
					<g>
						<path d="M361.72,326.086c0.407,0.915,0.372,1.954-0.103,2.836C361.41,327.938,361.445,327.054,361.72,326.086L361.72,326.086z
							"/>
					</g>
					<g>
						<path d="M366.527,326.629c0.261,0.936,0.185,1.858-0.235,2.735C366.028,328.428,366.111,327.507,366.527,326.629
							L366.527,326.629z"/>
					</g>
					<g>
						<path d="M369.739,327.066c0.411,0.931,0.366,1.997-0.129,2.888C369.425,328.948,369.467,328.053,369.739,327.066
							L369.739,327.066z"/>
					</g>
				</g>
			</g>
			<g>
				<ellipse style="fill:#FFC384;" cx="252.788" cy="312.491" rx="51.189" ry="50.394"/>
				<g>
					<defs>
						
							<ellipse id="SVGID_00000002383157102742090110000003433086684864024459_" cx="252.788" cy="312.491" rx="51.189" ry="50.394"/>
					</defs>
					<clipPath id="SVGID_00000147919348684935512720000010969246874572434843_">
						<use xlink:href="#SVGID_00000002383157102742090110000003433086684864024459_"  style="overflow:visible;"/>
					</clipPath>
					<g style="clip-path:url(#SVGID_00000147919348684935512720000010969246874572434843_);">
						<path style="fill:none;stroke:#001741;stroke-miterlimit:10;" d="M243.921,247.048c11.459,4.853,19.987,15.22,24.618,26.771
							c4.632,11.55,5.714,24.237,5.408,36.677c-0.311,12.66-2.046,25.429-6.798,37.168s-12.71,22.431-23.557,28.967"/>
						<path style="fill:none;stroke:#001741;stroke-miterlimit:10;" d="M199.348,275.275c10.948-6.971,24.011-10.726,36.973-10.073
							c4.153,0.209,8.344,0.88,12.114,2.635c3.77,1.756,7.103,4.689,8.735,8.514c1.98,4.64,1.258,10.069-0.745,14.699
							c-2.002,4.63-5.174,8.638-8.219,12.659c-7.922,10.461-15.25,21.453-20.704,33.389c-5.454,11.936-9.001,24.877-9.118,37.999"/>
						<path style="fill:none;stroke:#001741;stroke-miterlimit:10;" d="M299.585,252.319c-7.337,3.89-15.244,8.403-18.215,16.158
							c-2.39,6.239-0.983,13.359,1.825,19.421c2.808,6.062,6.92,11.416,10.262,17.201c9.367,16.216,12.413,35.978,8.362,54.262"/>
						<path style="fill:none;stroke:#001741;stroke-miterlimit:10;" d="M310.535,301.319c-9.43-11.895-23.938-19.331-38.995-21.259
							c-15.057-1.928-30.557,1.424-44.09,8.299c-13.534,6.875-25.167,17.154-34.701,28.967"/>
					</g>
				</g>
			</g>
			<g>
				<path style="fill:#001741;" d="M406.525,360.171c-27.854,8.302-230.139-15.427-333.093-20.015
					c-9.17-0.409-15.672-1.992-19.099,6.524c-2.677,6.653-1.687,13.064,4.319,16.983c4.258,2.778,13.016,2.639,20.187,2.601
					c84.924-0.454,172.209,0.765,251.365,3.355c18.57,0.608,48.229,2.387,69.331,6.193c4.233,0.763,6.165,9.063,12.361-1.442
					C414.081,370.669,412.096,364.261,406.525,360.171z"/>
				<path style="fill:#001741;" d="M411.543,359.726c-2.63-1.973-6.373-0.612-7.213,2.566c-1.253,4.742-1.36,9.788-0.272,14.572
					c0.318,1.397,0.79,2.858,1.902,3.761c1.363,1.107,3.434,1.055,4.947,0.163c1.512-0.892,2.511-2.482,3.045-4.155
					c0.534-1.673,0.653-3.446,0.768-5.198c0.198-3.003,0.371-6.149-0.879-8.887C413.347,361.467,412.552,360.483,411.543,359.726z"
					/>
			</g>
			<g>
				
					<ellipse transform="matrix(0.1561 -0.9877 0.9877 0.1561 -276.6976 402.5297)" style="fill:#00BCAD;" cx="97.216" cy="363.191" rx="15.247" ry="15.247"/>
				<g>
					<defs>
						
							<ellipse id="SVGID_00000058558099016157349160000003974644650409830562_" transform="matrix(0.1561 -0.9877 0.9877 0.1561 -276.6976 402.5297)" cx="97.216" cy="363.191" rx="15.247" ry="15.247"/>
					</defs>
					<clipPath id="SVGID_00000096031058773123827510000011376186520093733250_">
						<use xlink:href="#SVGID_00000058558099016157349160000003974644650409830562_"  style="overflow:visible;"/>
					</clipPath>
					
						<path style="clip-path:url(#SVGID_00000096031058773123827510000011376186520093733250_);fill:none;stroke:#E4F0F6;stroke-miterlimit:10;" d="
						M83.421,346.938c2.725,0.753,5.446,1.825,7.514,3.753c2.068,1.929,3.376,4.861,2.756,7.619c-0.366,1.628-1.344,3.04-2.283,4.42
						c-1.608,2.363-3.196,4.846-3.715,7.658c-0.519,2.811,0.276,6.051,2.634,7.666"/>
					
						<path style="clip-path:url(#SVGID_00000096031058773123827510000011376186520093733250_);fill:none;stroke:#E4F0F6;stroke-miterlimit:10;" d="
						M111.974,351.034c-1.025,0.598-1.711,2.802-1.892,3.974c-1.233,7.976,2.178,9.667,2.178,17.76"/>
				</g>
			</g>
			<g>
				<g>
					<path style="fill:#6780D3;" d="M142.16,377.413c5.182,5.643,12.924,8.453,20.571,8.92c7.647,0.467,15.267-1.201,22.617-3.362
						c9.393-2.762,18.607-6.381,26.841-11.676c8.235-5.296,15.482-12.346,20.114-20.971c2.045-3.808,3.592-8.052,3.281-12.363
						c-0.311-4.31-2.83-8.661-7.201-10.514c-5.683-5.861-10.566-12.497-14.286-19.784c-0.046-6.46-4.683-12.347-10.586-14.969
						s-12.797-2.328-18.948-0.356c-6.151,1.972-11.679,5.501-16.932,9.259c-10.558,7.553-20.551,16.454-26.653,27.911
						c-6.091,11.436-7.917,24.824-6.744,37.728c0.222,2.445,0.578,4.969,1.884,7.048C137.423,376.363,139.925,377.88,142.16,377.413
						z"/>
					<g>
						<g>
							<path d="M228.612,331.696c-3.352-2.806-8.355-2.071-11.685,0.369c-3.475,2.393-5.805,6.006-8.402,9.359
								c-5.125,7.005-13.371,10.9-21.523,13.199c-12.21,3.395-25.41,3.965-36.12,11.22c-3.499,2.33-6.575,5.371-8.687,9.061
								c1.913-3.804,4.957-6.969,8.407-9.463c10.542-7.595,24.061-8.36,36.129-11.779c8.065-2.196,16.007-5.953,21.196-12.715
								c2.64-3.252,5.09-6.903,8.73-9.287C220.129,329.291,225.356,328.663,228.612,331.696L228.612,331.696z"/>
						</g>
						<g>
							<path d="M214.247,310.068c-5.287,6.067-12.264,10.647-19.916,13.172c-3.764,1.368-7.878,1.667-11.637,2.921
								c-3.759,1.207-6.593,4.14-9.075,7.215c-5.052,6.21-10.017,12.503-15.131,18.689c-2.594,3.061-5.375,6.04-8.679,8.383
								c-3.296,2.304-7.131,4.007-11.158,4.243c3.998-0.464,7.714-2.239,10.87-4.64c6.547-4.672,17.994-21.078,23.326-27.309
								c4.355-5.588,8.493-7.826,15.459-8.824C198.14,322.185,207.286,317.295,214.247,310.068L214.247,310.068z"/>
						</g>
						<g>
							<path d="M155.141,362.676c-0.403-1.144-1.146-2.163-2.205-2.604c0.07,0.029,0.32-0.109,0.358-0.282
								c0.034-0.068-0.029-0.199,0.04-0.036c0.331,0.629,0.909,1.398,1.296,2.02C154.834,362.1,154.877,362.356,155.141,362.676
								L155.141,362.676z M155.141,362.676c-0.776-0.338-4.289-3.19-2.166-3.603C154.52,359.406,155.513,361.207,155.141,362.676
								L155.141,362.676z"/>
						</g>
						<g>
							<path d="M222.814,329.638c-5.554-3.116-10.048-8.314-12.315-14.267C214.033,320.691,218.063,325.369,222.814,329.638
								L222.814,329.638z"/>
						</g>
						<g>
							<path d="M215.35,332.464c-4.221-3.632-7.472-8.45-9.245-13.73C209.139,323.421,212.144,327.893,215.35,332.464
								L215.35,332.464z"/>
						</g>
						<g>
							<path d="M212.164,335.697c-4.52-3.838-7.95-9.05-9.672-14.724C205.502,326.101,208.649,330.902,212.164,335.697
								L212.164,335.697z"/>
						</g>
						<g>
							<path d="M209.544,339.285c-5.486-4.299-9.714-10.343-11.855-16.978C201.124,328.393,205.009,333.967,209.544,339.285
								L209.544,339.285z"/>
						</g>
						<g>
							<path d="M210.864,300.349c-5.909-6.117-15.23-4.205-22.258-1.198c-5.535,2.209-11.303,4.76-17.434,4.711
								c-2.023-0.003-4.045-0.17-6.01-0.598c1.999,0.203,4.003,0.27,5.991,0.108c10.194-0.389,18.617-7.845,28.915-7.835
								C204.094,295.593,208.376,297.069,210.864,300.349L210.864,300.349z"/>
						</g>
						<g>
							<path d="M155.262,312.844c1.732,6.616-3.71,12.063-6.487,17.488c-3.78,7.606-3.716,16.654-8.208,24.017
								c-1.127,1.823-2.52,3.5-4.21,4.797c6.367-6.067,6.943-15.188,9.243-23.228c1.128-4.134,3.287-7.992,5.802-11.416
								C153.765,321.093,156.003,317.139,155.262,312.844L155.262,312.844z"/>
						</g>
					</g>
					<g>
						<circle style="fill:none;stroke:#000000;stroke-miterlimit:10;" cx="145.927" cy="377.822" r="1.857"/>
						<circle style="fill:none;stroke:#000000;stroke-miterlimit:10;" cx="152.805" cy="380.74" r="1.857"/>
						<path style="fill:none;stroke:#000000;stroke-miterlimit:10;" d="M158.64,381.536c0-1.025,0.831-1.857,1.857-1.857
							c1.025,0,1.857,0.831,1.857,1.857c0,1.025-0.831,1.857-1.857,1.857C159.471,383.392,158.64,382.561,158.64,381.536z"/>
						<path style="fill:none;stroke:#000000;stroke-miterlimit:10;" d="M167.128,381.536c0-1.025,0.831-1.857,1.857-1.857
							c1.025,0,1.857,0.831,1.857,1.857c0,1.025-0.831,1.857-1.857,1.857C167.959,383.392,167.128,382.561,167.128,381.536z"/>
						<circle style="fill:none;stroke:#000000;stroke-miterlimit:10;" cx="178.002" cy="380.74" r="1.857"/>
						<path style="fill:none;stroke:#000000;stroke-miterlimit:10;" d="M184.3,377.822c0-1.025,0.831-1.857,1.857-1.857
							c1.025,0,1.857,0.831,1.857,1.857c0,1.025-0.831,1.857-1.857,1.857C185.131,379.679,184.3,378.848,184.3,377.822z"/>
						<circle style="fill:none;stroke:#000000;stroke-miterlimit:10;" cx="194.378" cy="375.966" r="1.857"/>
						<path style="fill:none;stroke:#000000;stroke-miterlimit:10;" d="M200.636,371.722c0-1.025,0.831-1.857,1.857-1.857
							c1.025,0,1.857,0.831,1.857,1.857c0,1.025-0.831,1.857-1.857,1.857C201.467,373.579,200.636,372.747,200.636,371.722z"/>
						<circle style="fill:none;stroke:#000000;stroke-miterlimit:10;" cx="210.499" cy="366.548" r="1.857"/>
						<circle style="fill:none;stroke:#000000;stroke-miterlimit:10;" cx="217.339" cy="361.428" r="1.857"/>
						<path style="fill:none;stroke:#000000;stroke-miterlimit:10;" d="M220.957,356.388c0-1.025,0.534-1.857,1.194-1.857
							c0.659,0,1.193,0.831,1.193,1.857c0,1.025-0.534,1.857-1.193,1.857C221.492,358.245,220.957,357.414,220.957,356.388z"/>
						<path style="fill:none;stroke:#000000;stroke-miterlimit:10;" d="M224.671,351.614c0-1.025,0.534-1.857,1.194-1.857
							c0.659,0,1.194,0.831,1.194,1.857s-0.534,1.857-1.194,1.857C225.205,353.471,224.671,352.64,224.671,351.614z"/>
						<ellipse style="fill:none;stroke:#000000;stroke-miterlimit:10;" cx="228.782" cy="347.238" rx="0.928" ry="1.459"/>
						<path style="fill:none;stroke:#000000;stroke-miterlimit:10;" d="M230.253,343.11c-0.144-0.643-0.029-1.217,0.257-1.281
							c0.286-0.064,0.634,0.405,0.779,1.049c0.144,0.643,0.029,1.217-0.257,1.281C230.746,344.223,230.397,343.753,230.253,343.11z"
							/>
						<path style="fill:none;stroke:#000000;stroke-miterlimit:10;" d="M231.578,339.3c-0.08-0.357-0.115-0.654-0.078-0.662
							s0.132,0.275,0.212,0.632c0.08,0.357,0.115,0.654,0.078,0.662C231.753,339.941,231.658,339.658,231.578,339.3z"/>
						<path style="fill:none;stroke:#000000;stroke-miterlimit:10;" d="M231.737,336.36c-0.08-0.357-0.115-0.654-0.078-0.662
							c0.037-0.008,0.132,0.275,0.212,0.632c0.08,0.357,0.115,0.654,0.078,0.662C231.912,337,231.817,336.717,231.737,336.36z"/>
						<path style="fill:none;stroke:#000000;stroke-miterlimit:10;" d="M175.086,298.201c-0.296,0.216-0.553,0.367-0.576,0.336
							c-0.022-0.031,0.199-0.231,0.494-0.447c0.296-0.216,0.553-0.367,0.576-0.336S175.381,297.985,175.086,298.201z"/>
						<path style="fill:none;stroke:#000000;stroke-miterlimit:10;" d="M170.881,301.279c-0.296,0.216-0.553,0.367-0.576,0.336
							s0.199-0.231,0.494-0.447c0.296-0.216,0.553-0.367,0.576-0.336C171.398,300.863,171.177,301.063,170.881,301.279z"/>
						<path style="fill:none;stroke:#000000;stroke-miterlimit:10;" d="M179.899,295.974c-0.296,0.216-0.553,0.367-0.576,0.336
							c-0.022-0.031,0.199-0.231,0.494-0.447c0.295-0.216,0.553-0.367,0.576-0.336C180.416,295.558,180.195,295.758,179.899,295.974
							z"/>
						<path style="fill:none;stroke:#000000;stroke-miterlimit:10;" d="M186.183,293.595c-0.337,0.144-0.622,0.232-0.637,0.198
							c-0.015-0.035,0.246-0.18,0.583-0.324c0.337-0.144,0.622-0.233,0.637-0.198C186.781,293.306,186.52,293.451,186.183,293.595z"
							/>
						<path style="fill:none;stroke:#000000;stroke-miterlimit:10;" d="M152.14,316.92c-0.236,0.28-0.452,0.487-0.48,0.462
							c-0.029-0.025,0.139-0.271,0.376-0.551c0.236-0.28,0.452-0.486,0.481-0.462C152.545,316.394,152.377,316.641,152.14,316.92z"
							/>
						<path style="fill:none;stroke:#000000;stroke-miterlimit:10;" d="M147.091,322.522c-0.236,0.28-0.451,0.487-0.48,0.462
							c-0.029-0.025,0.139-0.271,0.376-0.551c0.236-0.28,0.452-0.487,0.481-0.462C147.496,321.996,147.328,322.242,147.091,322.522z
							"/>
						<path style="fill:none;stroke:#000000;stroke-miterlimit:10;" d="M142.572,328.241c-0.236,0.28-0.452,0.487-0.48,0.462
							c-0.029-0.025,0.139-0.271,0.375-0.551c0.236-0.28,0.452-0.487,0.48-0.462C142.977,327.715,142.809,327.961,142.572,328.241z"
							/>
						<path style="fill:none;stroke:#000000;stroke-miterlimit:10;" d="M139.146,334.483c-0.143,0.337-0.287,0.599-0.322,0.584
							c-0.035-0.015,0.052-0.3,0.195-0.637c0.143-0.337,0.287-0.599,0.322-0.584C139.376,333.86,139.289,334.145,139.146,334.483z"
							/>
						<path style="fill:none;stroke:#000000;stroke-miterlimit:10;" d="M137.436,340.646c-0.108,0.35-0.225,0.624-0.262,0.613
							c-0.036-0.011,0.022-0.304,0.131-0.654c0.108-0.35,0.225-0.624,0.262-0.613C137.603,340.004,137.544,340.296,137.436,340.646z
							"/>
						<path style="fill:none;stroke:#000000;stroke-miterlimit:10;" d="M136.409,346.774c-0.236,0.28-0.451,0.487-0.48,0.462
							c-0.029-0.024,0.139-0.271,0.376-0.551c0.236-0.28,0.452-0.487,0.48-0.462C136.814,346.248,136.646,346.494,136.409,346.774z"
							/>
					</g>
					<g>
						<g>
							<path style="fill:none;" d="M138.401,338.15"/>
						</g>
						<g>
							<path style="fill:#FFD272;" d="M186.166,377.305c1.702,1.576,3.128,2.7,5.047,4.003
								C188.895,381.424,186.585,379.585,186.166,377.305L186.166,377.305z"/>
						</g>
						<g>
							<path style="fill:#FFD272;" d="M178.032,380.224c1.721,1.201,3.037,2.097,4.775,3.273
								C180.727,383.738,178.562,382.248,178.032,380.224L178.032,380.224z"/>
						</g>
						<g>
							<path style="fill:#FFD272;" d="M169.059,381.331c1.773,1.764,3.368,2.987,5.521,4.259
								C172.077,385.762,169.531,383.792,169.059,381.331L169.059,381.331z"/>
						</g>
						<g>
							<path style="fill:#FFD272;" d="M160.552,381.583c1.283,1.779,2.445,2.922,4.235,4.19
								C162.565,385.97,160.382,383.804,160.552,381.583L160.552,381.583z"/>
						</g>
						<g>
							<path style="fill:#FFD272;" d="M152.742,380.696c1.392,1.842,2.559,3.243,4.104,4.959
								C154.586,385.211,152.76,382.998,152.742,380.696L152.742,380.696z"/>
						</g>
						<g>
							<path style="fill:#FFD272;" d="M145.791,377.789c0.802,2.033,1.567,3.482,2.779,5.301
								C146.458,382.469,145.106,379.878,145.791,377.789L145.791,377.789z"/>
						</g>
						<g>
							<path style="fill:#FFD272;" d="M194.554,375.579c1.626,1.099,2.837,1.686,4.701,2.299
								C197.473,378.801,194.924,377.549,194.554,375.579L194.554,375.579z"/>
						</g>
						<g>
							<path style="fill:#FFD272;" d="M202.831,371.241c1.501,0.876,2.468,1.391,4.022,2.168
								C205.251,374.14,203.104,372.978,202.831,371.241L202.831,371.241z"/>
						</g>
						<g>
							<path style="fill:#FFD272;" d="M210.477,366.418c1.698,1.022,2.952,1.617,4.81,2.306
								C213.458,369.546,210.986,368.356,210.477,366.418L210.477,366.418z"/>
						</g>
						<g>
							<path style="fill:#FFD272;" d="M217.64,361.173c1.717,0.714,2.95,1.434,4.404,2.595
								C220.209,363.973,218.353,362.874,217.64,361.173L217.64,361.173z"/>
						</g>
						<g>
							<path style="fill:#FFD272;" d="M222.231,356.377c1.693,0.845,2.894,1.507,4.501,2.506
								C224.896,359.318,222.831,358.162,222.231,356.377L222.231,356.377z"/>
						</g>
						<g>
							<path style="fill:#FFD272;" d="M225.893,351.359c1.613,0.523,2.746,1.208,3.946,2.408
								C228.159,353.884,226.561,352.903,225.893,351.359L225.893,351.359z"/>
						</g>
						<g>
							<path style="fill:#FFD272;" d="M228.873,346.869c1.518,0.717,2.541,1.58,3.488,2.967
								C230.704,349.65,229.326,348.471,228.873,346.869L228.873,346.869z"/>
						</g>
						<g>
							<path style="fill:#FFD272;" d="M230.906,342.649c1.514,0.412,2.614,1.363,3.228,2.811
								C232.615,345.051,231.523,344.092,230.906,342.649L230.906,342.649z"/>
						</g>
						<g>
							<path style="fill:#FFD272;" d="M231.679,339.228c1.223-0.261,2.387,0.456,2.689,1.673
								C233.12,340.713,232.403,340.261,231.679,339.228L231.679,339.228z"/>
						</g>
						<g>
							<path style="fill:#FFD272;" d="M231.839,336.255c1.155-0.356,2.342,0.354,2.563,1.545
								C233.195,337.614,232.569,337.231,231.839,336.255L231.839,336.255z"/>
						</g>
						<g>
							<path style="fill:#FFD272;" d="M170.639,300.851c-0.981-0.136-1.468-0.739-1.378-1.729
								C170.245,299.255,170.724,299.864,170.639,300.851L170.639,300.851z"/>
						</g>
						<g>
							<path style="fill:#FFD272;" d="M174.876,297.932c-0.851,0.142-1.33-0.287-1.266-1.151
								C174.464,296.635,174.937,297.071,174.876,297.932L174.876,297.932z"/>
						</g>
						<g>
							<path style="fill:#FFD272;" d="M179.653,295.573c-0.866-0.025-1.258-0.54-1.036-1.381
								C179.486,294.213,179.871,294.734,179.653,295.573L179.653,295.573z"/>
						</g>
						<g>
							<path style="fill:#FFD272;" d="M186.171,293.138c-0.943,0.066-1.515-0.441-1.547-1.389
								C185.57,291.679,186.136,292.194,186.171,293.138L186.171,293.138z"/>
						</g>
						<g>
							<path style="fill:#FFD272;" d="M152.088,316.876c-1.492,0.191-1.99,0.7-3.394,1.198
								C148.837,316.573,151.101,315.532,152.088,316.876L152.088,316.876z"/>
						</g>
						<g>
							<path style="fill:#FFD272;" d="M137.37,340.706c-0.732,0.099-0.622,0.678-0.845,1.212c-0.186,0.567-0.352,1.187-0.823,1.8
								c-0.316-0.695-0.327-1.392-0.133-2.091C135.703,340.94,136.717,339.848,137.37,340.706L137.37,340.706z"/>
						</g>
						<g>
							<path style="fill:#FFD272;" d="M138.878,334.534c-0.643,0.956-0.548,1.969-1.338,2.846
								C136.844,336.344,137.418,334.257,138.878,334.534L138.878,334.534z"/>
						</g>
						<g>
							<path style="fill:#FFD272;" d="M142.413,328.16c-0.736-0.064-0.756,0.525-1.091,0.997c-0.306,0.512-0.604,1.08-1.198,1.575
								c-0.156-0.747-0.013-1.43,0.329-2.069C140.735,328.022,141.965,327.18,142.413,328.16L142.413,328.16z"/>
						</g>
						<g>
							<path style="fill:#FFD272;" d="M136.536,346.428c-0.745,1.393-1.841,2.049-1.992,3.627
								C133.122,348.726,134.938,346.485,136.536,346.428L136.536,346.428z"/>
						</g>
						<g>
							<path style="fill:#FFD272;" d="M146.841,322.485c-0.926,0.499-0.988,0.52-2.04,0.544
								C144.721,321.925,146.36,321.492,146.841,322.485L146.841,322.485z"/>
						</g>
					</g>
				</g>
				<g>
					<ellipse style="fill:#FFFFFF;" cx="187.781" cy="337.837" rx="15.914" ry="16.046"/>
					<g>
						<defs>
							
								<ellipse id="SVGID_00000030487025671691938330000014526732603599344048_" cx="187.781" cy="337.837" rx="15.914" ry="16.046"/>
						</defs>
						<clipPath id="SVGID_00000022536042878149469720000008075504035761876127_">
							<use xlink:href="#SVGID_00000030487025671691938330000014526732603599344048_"  style="overflow:visible;"/>
						</clipPath>
						<g style="clip-path:url(#SVGID_00000022536042878149469720000008075504035761876127_);">
							<g>
								<path style="fill:#001741;" d="M204.09,343.078c-1.956,0.213-3.651-1.121-5.215-2.089c-1.583-1.021-3.22-1.954-4.94-2.676
									c-4.976-2.226-11.39-2.444-15.386,1.659c-4.179,4.218-2.496,10.937,0.938,15.109c-4.104-3.975-5.994-11.258-1.597-15.737
									c4.142-4.523,11.277-4.28,16.36-1.73c1.736,0.832,3.359,1.857,4.901,2.973C200.65,341.688,202.13,343.055,204.09,343.078
									L204.09,343.078z"/>
							</g>
							<g>
								<path style="fill:#001741;" d="M189.676,321.543c-6.485,2.369-12.275,5.786-17.493,10.306
									C176.346,326.361,182.861,322.53,189.676,321.543L189.676,321.543z"/>
							</g>
						</g>
						<g style="clip-path:url(#SVGID_00000022536042878149469720000008075504035761876127_);">
							<g>
								<path style="fill:#FFA3A6;" d="M180.71,335.559c0.604,0.271,1.442,0.466,1.831,0.976c0.083,0.932,0.105,1.867-0.065,2.814
									c-0.285-0.913-0.38-1.838-0.414-2.767l0.111,0.188C181.656,336.413,181.159,336.024,180.71,335.559L180.71,335.559z"/>
							</g>
							<g>
								<path style="fill:#FFA3A6;" d="M178.69,336.654c0.823,0.082,1.574,0.281,2.32,0.517c0.109,0.035,0.178,0.138,0.174,0.247
									l-0.051,1.29c-0.025,2.736-0.548-0.265-0.444-1.312l0.185,0.25C180.12,337.38,179.369,337.075,178.69,336.654
									L178.69,336.654z"/>
							</g>
							<g>
								<path style="fill:#FFA3A6;" d="M177.246,337.656c0.839,0.082,1.634,0.318,2.412,0.619c0.081,0.032,0.133,0.105,0.144,0.186
									c0.081,0.64,0.127,1.285,0.06,1.948c-0.268-0.61-0.423-1.238-0.543-1.871l0.158,0.191
									C178.692,338.46,177.938,338.13,177.246,337.656L177.246,337.656z"/>
							</g>
							<g>
								<path style="fill:#FFA3A6;" d="M176.264,338.81c0.673,0.134,1.297,0.28,1.935,0.381c0.086,0.014,0.154,0.073,0.182,0.15
									c0.28,0.783,0.496,1.58,0.559,2.418c-0.239-0.351-0.413-0.725-0.589-1.097c-0.162-0.377-0.309-0.76-0.429-1.151l0.187,0.162
									C177.438,339.529,176.789,339.255,176.264,338.81L176.264,338.81z"/>
							</g>
							<g>
								<path style="fill:#FFA3A6;" d="M175.117,340.626c0.537-0.027,1.482-0.232,1.896,0.056c0.425,0.775,0.794,1.577,0.988,2.47
									c-0.603-0.677-1.033-1.442-1.406-2.235l0.188,0.13C176.222,340.958,175.665,340.834,175.117,340.626L175.117,340.626z"/>
							</g>
							<g>
								<path style="fill:#FFA3A6;" d="M174.548,342.113c0.481-0.07,1.038-0.255,1.48-0.092c0.57,0.656,1.059,1.362,1.377,2.183
									c-0.358-0.258-0.658-0.562-0.945-0.874c-0.283-0.316-0.537-0.654-0.77-1.007l0.168,0.089
									C175.418,342.351,174.981,342.269,174.548,342.113L174.548,342.113z"/>
							</g>
							<g>
								<path style="fill:#FFA3A6;" d="M174.395,343.87c0.248-0.255,0.685-0.457,1.058-0.37c0.623,0.469,1.163,1.015,1.54,1.713
									c-0.71-0.315-1.285-0.798-1.794-1.367l0.127,0.057C175.043,343.832,174.738,343.832,174.395,343.87L174.395,343.87z"/>
							</g>
							<g>
								<path style="fill:#FFA3A6;" d="M174.464,345.784c0.182-0.256,0.504-0.528,0.835-0.536c0.697,0.309,1.328,0.714,1.822,1.315
									c-0.747-0.141-1.388-0.487-1.984-0.934l0.147,0.025C175.022,345.657,174.761,345.716,174.464,345.784L174.464,345.784z"/>
							</g>
							<g>
								<path style="fill:#FFA3A6;" d="M174.792,348.044c0.157-0.385,0.515-0.864,0.949-0.887c0.484,0.163,0.926,0.397,1.293,0.77
									c-0.514,0.021-0.986-0.105-1.444-0.308l0.196-0.007C175.47,347.744,175.165,347.891,174.792,348.044L174.792,348.044z"/>
							</g>
							<g>
								<path style="fill:#FFA3A6;" d="M175.372,349.989c0.167-0.339,0.467-1.007,0.847-1.007c0.231,0.06,0.451,0.15,0.667,0.256
									c1.294,0.67-0.246,0.427-0.794,0.217l0.246-0.056C176.059,349.639,175.756,349.856,175.372,349.989L175.372,349.989z"/>
							</g>
							<g>
								<path style="fill:#FFA3A6;" d="M175.842,352.079c0.108-0.475,0.334-0.863,0.589-1.231c0.054-0.078,0.148-0.114,0.236-0.1
									c0.463,0.07,0.908,0.185,1.32,0.435c-0.465,0.129-0.924,0.118-1.389,0.059l0.236-0.1
									C176.561,351.497,176.261,351.831,175.842,352.079L175.842,352.079z"/>
							</g>
							<g>
								<path style="fill:#FFA3A6;" d="M176.921,353.762c0.029-0.442,0.182-0.815,0.366-1.171c0.049-0.096,0.155-0.144,0.255-0.125
									c0.427,0.078,0.832,0.204,1.198,0.465c-0.432,0.119-0.853,0.099-1.279,0.026l0.261-0.124
									C177.517,353.177,177.281,353.504,176.921,353.762L176.921,353.762z"/>
							</g>
							<g>
								<path style="fill:#FFA3A6;" d="M178.007,355.217c-0.09-0.395-0.069-0.766-0.013-1.13c0.018-0.115,0.118-0.196,0.23-0.194
									c0.592,0.003,2.168,0.371,0.687,0.503c-0.234,0.014-0.466,0.015-0.696-0.014l0.257-0.194
									C178.378,354.543,178.248,354.892,178.007,355.217L178.007,355.217z"/>
							</g>
							<g>
								<path style="fill:#FFA3A6;" d="M179.044,356.726c-0.092-0.379-0.111-0.748-0.09-1.111c0.007-0.125,0.117-0.212,0.238-0.206
									c2.128-0.046,2.122,0.553-0.003,0.476l0.237-0.206C179.35,356.035,179.233,356.385,179.044,356.726L179.044,356.726z"/>
							</g>
							<g>
								<path style="fill:#FFA3A6;" d="M182.172,334.574c0.749,0.464,1.693,0.876,2.192,1.571c-0.007,1.037-0.078,2.066-0.308,3.085
									c-0.188-1.023-0.217-2.05-0.182-3.082l0.091,0.195C183.327,335.802,182.712,335.234,182.172,334.574L182.172,334.574z"/>
							</g>
							<g>
								<path style="fill:#FFA3A6;" d="M184.071,334.041c0.736,0.589,1.671,1.147,2.137,1.935c-0.121,1.112-0.304,2.21-0.646,3.282
									c-0.074-1.118,0.01-2.225,0.158-3.33l0.069,0.202C185.172,335.477,184.58,334.8,184.071,334.041L184.071,334.041z"/>
							</g>
							<g>
								<path style="fill:#FFA3A6;" d="M185.884,333.736c0.679,0.749,1.564,1.514,1.956,2.426c-0.325,1.145-0.707,2.267-1.239,3.337
									c0.132-1.182,0.418-2.327,0.764-3.46l0.032,0.206C186.841,335.449,186.318,334.634,185.884,333.736L185.884,333.736z"/>
							</g>
							<g>
								<path style="fill:#FFA3A6;" d="M188.194,333.927c0.533,0.645,1.121,1.4,1.293,2.218c-0.351,1.042-0.766,2.053-1.338,3
									c0.162-1.089,0.486-2.129,0.876-3.151l0.003,0.171C188.759,335.424,188.466,334.695,188.194,333.927L188.194,333.927z"/>
							</g>
							<g>
								<path style="fill:#FFA3A6;" d="M190.188,333.881c0.376,1.027,0.81,2.122,0.864,3.202c-0.471,0.834-0.972,1.651-1.594,2.402
									c0.296-0.929,0.712-1.793,1.159-2.64l-0.025,0.169C190.373,335.981,190.206,334.943,190.188,333.881L190.188,333.881z"/>
							</g>
							<g>
								<path style="fill:#FFA3A6;" d="M192.1,334.482c0.296,0.94,0.653,1.934,0.656,2.896c-0.518,0.892-1.078,1.754-1.764,2.533
									c0.34-0.981,0.815-1.892,1.336-2.783l-0.031,0.164C192.164,336.366,192.066,335.435,192.1,334.482L192.1,334.482z"/>
							</g>
							<g>
								<path style="fill:#FFA3A6;" d="M193.692,335.085c0.286,0.946,0.709,1.98,0.639,2.938c-0.616,0.758-1.262,1.484-2.019,2.111
									c0.451-0.874,1.022-1.66,1.631-2.424l-0.052,0.195C193.754,336.977,193.651,336.043,193.692,335.085L193.692,335.085z"/>
							</g>
							<g>
								<path style="fill:#FFA3A6;" d="M195.246,335.39c0.256,1.118,0.641,2.367,0.512,3.491c-0.662,0.685-1.351,1.345-2.132,1.918
									c0.52-0.818,1.133-1.549,1.771-2.255l-0.066,0.181C195.212,337.613,195.154,336.514,195.246,335.39L195.246,335.39z"/>
							</g>
							<g>
								<path style="fill:#FFA3A6;" d="M196.857,335.749c0.192,1.195,0.224,2.395,0.192,3.599c-0.541,0.812-1.39,1.455-2.148,2.104
									c0.507-0.82,1.101-1.563,1.721-2.281l-0.063,0.16C196.563,338.129,196.63,336.934,196.857,335.749L196.857,335.749z"/>
							</g>
							<g>
								<path style="fill:#FFA3A6;" d="M198.246,336.99c0.191,0.996,0.229,1.999,0.21,3.006c-0.51,0.735-1.4,1.243-2.154,1.769
									c0.513-0.725,1.114-1.355,1.739-1.959l-0.079,0.177C197.97,338.978,198.031,337.979,198.246,336.99L198.246,336.99z"/>
							</g>
							<g>
								<path style="fill:#FFA3A6;" d="M199.625,337.717c0.045,1.029,0.221,2.18-0.077,3.136c-0.857,0.648-1.74,1.252-2.708,1.732
									c0.727-0.799,1.551-1.482,2.409-2.128l-0.098,0.179C199.241,339.658,199.365,338.682,199.625,337.717L199.625,337.717z"/>
							</g>
							<g>
								<path style="fill:#FFA3A6;" d="M200.793,338.837c0.047,0.916,0.079,1.923-0.179,2.798c-0.589,0.537-1.202,1.048-1.908,1.461
									c0.45-0.678,0.993-1.259,1.56-1.814l-0.072,0.129C200.311,340.529,200.479,339.682,200.793,338.837L200.793,338.837z"/>
							</g>
							<g>
								<path style="fill:#FFA3A6;" d="M202.089,339.581c0.071,0.76,0.185,1.578-0.007,2.295c-0.628,0.647-1.297,1.243-2.072,1.718
									c0.477-0.769,1.072-1.433,1.718-2.055l-0.071,0.152C201.739,340.981,201.857,340.276,202.089,339.581L202.089,339.581z"/>
							</g>
							<g>
								<path style="fill:#FFA3A6;" d="M203.303,340.412c0.283,0.682,0.342,1.413,0.269,2.151c-0.007,0.189-0.171,0.509-0.384,0.601
									c-0.507,0.244-0.977,0.428-1.526,0.554c0.381-0.373,0.843-0.676,1.274-0.955c0.108-0.078,0.114-0.111,0.141-0.272
									C203.161,341.826,203.2,341.133,203.303,340.412L203.303,340.412z"/>
							</g>
							<g>
								<path style="fill:#FFA3A6;" d="M178.341,328.447c-0.624-0.079-1.184-0.183-1.76-0.238c-0.134-0.013-0.232-0.133-0.219-0.267
									c0.077-0.327,0.181-0.647,0.308-0.961c0.755-1.922,0.384,0.315,0.18,1.045l-0.211-0.311
									C177.258,327.799,177.871,328.024,178.341,328.447L178.341,328.447z"/>
							</g>
							<g>
								<path style="fill:#FFA3A6;" d="M176.767,329.782c-0.616-0.159-1.163-0.447-1.691-0.783c-0.095-0.061-0.133-0.177-0.099-0.28
									c0.18-0.541,0.394-1.072,0.742-1.561c0.012,0.6-0.111,1.159-0.267,1.707l-0.104-0.283
									C175.873,328.919,176.364,329.293,176.767,329.782L176.767,329.782z"/>
							</g>
							<g>
								<path style="fill:#FFA3A6;" d="M175.337,330.851c-0.29-0.145-0.561-0.08-0.911-0.181c-0.421-0.069-0.69-0.591-0.545-0.961
									c0.572-2.112,0.961-2.018,0.486,0.115C174.18,330.465,175.108,330.338,175.337,330.851L175.337,330.851z"/>
							</g>
							<g>
								<path style="fill:#FFA3A6;" d="M173.816,332.173c-0.512-0.249-0.973-0.47-1.459-0.639c-0.124-0.043-0.189-0.178-0.146-0.302
									c0.274-0.639,0.612-1.249,1.083-1.77c-0.092,0.693-0.323,1.322-0.624,1.939l-0.137-0.323
									C173.062,331.301,173.538,331.672,173.816,332.173L173.816,332.173z"/>
							</g>
							<g>
								<path style="fill:#FFA3A6;" d="M180.038,327.128c-0.305-0.115-0.565-0.014-0.896,0.009c-1.592,0.08-0.801-1.681-0.34-2.446
									c0.073,0.569-0.125,1.269-0.129,1.763C178.796,326.911,179.784,326.645,180.038,327.128L180.038,327.128z"/>
							</g>
							<g>
								<path style="fill:#FFA3A6;" d="M181.941,326.186l-2.076-0.316c-0.125-0.019-0.21-0.135-0.191-0.259
									c0.004-0.029,0.015-0.057,0.028-0.081l1.05-1.803l-0.591,2.001l-0.163-0.34L181.941,326.186L181.941,326.186z"/>
							</g>
							<g>
								<path style="fill:#FFA3A6;" d="M183.11,325.254c-0.51-0.032-0.978-0.165-1.431-0.331c-0.125-0.045-0.183-0.185-0.136-0.307
									c0.195-0.605,0.453-1.176,0.855-1.683c-0.007,0.647-0.166,1.253-0.395,1.846l-0.136-0.307
									C182.304,324.677,182.729,324.915,183.11,325.254L183.11,325.254z"/>
							</g>
							<g>
								<path style="fill:#FFA3A6;" d="M184.757,324.458c-0.5-0.061-0.963-0.202-1.411-0.376c-0.118-0.046-0.176-0.178-0.13-0.296
									c0.348-0.649,0.758-1.258,1.335-1.77c-0.173,0.733-0.509,1.367-0.898,1.97l-0.107-0.342
									C183.971,323.867,184.382,324.122,184.757,324.458L184.757,324.458z"/>
							</g>
							<g>
								<path style="fill:#FFA3A6;" d="M186.863,323.306c-0.537,0.041-1.086-0.134-1.54-0.443c-0.105-0.072-0.133-0.215-0.061-0.32
									c0.457-0.618,0.963-1.197,1.62-1.655c-0.294,0.735-0.736,1.353-1.226,1.933l-0.044-0.343
									C185.983,322.786,186.393,323.047,186.863,323.306L186.863,323.306z"/>
							</g>
						</g>
					</g>
				</g>
			</g>
		</g>
	</g>
</g>
</svg>
