<?xml version="1.0" encoding="utf-8"?>
<!-- Generator: Adobe Illustrator 27.5.0, SVG Export Plug-In . SVG Version: 6.00 Build 0)  -->
<svg version="1.1" xmlns="http://www.w3.org/2000/svg" xmlns:xlink="http://www.w3.org/1999/xlink" x="0px" y="0px"
	 viewBox="0 0 500 500" style="enable-background:new 0 0 500 500;" xml:space="preserve">
<g id="BACKGROUND">
	<g>
		<g>
			<rect x="80.649" y="171.417" style="fill:#E3E4FF;" width="32.432" height="10.333"/>
			<rect x="233.472" y="57.75" style="fill:#E3E4FF;" width="32.432" height="10.333"/>
			
				<rect x="423.429" y="115.521" style="fill:#FFFFFF;stroke:#E3E4FF;stroke-width:1.0662;stroke-linecap:round;stroke-linejoin:round;stroke-miterlimit:10;" width="32.432" height="10.333"/>
			
				<rect x="48.217" y="66.111" style="fill:#FFFFFF;stroke:#E3E4FF;stroke-width:1.0662;stroke-linecap:round;stroke-linejoin:round;stroke-miterlimit:10;" width="32.432" height="10.333"/>
		</g>
		<g>
			<line style="fill:#FFFFFF;stroke:#E3E4FF;stroke-width:2;stroke-miterlimit:10;" x1="0" y1="368.996" x2="500" y2="368.996"/>
			<g>
				<g>
					<rect x="138.733" y="178.499" style="fill:#E3E4FF;" width="80.249" height="17.112"/>
					
						<rect x="139.191" y="76.444" style="fill:#FFFFFF;stroke:#E3E4FF;stroke-width:1.0662;stroke-linecap:round;stroke-linejoin:round;stroke-miterlimit:10;" width="79.333" height="117.168"/>
					<path style="opacity:0.3;fill:#E3E4FF;" d="M191.803,135.847c-0.326,0.324-0.527,0.773-0.527,1.268
						c0,0.992,0.804,1.793,1.795,1.793h0.059c2.653,0,4.803,2.152,4.803,4.805c0,1.327-0.537,2.527-1.406,3.396
						c-0.87,0.87-2.07,1.406-3.396,1.406h-5.883c-0.495,0-0.945,0.202-1.27,0.525c-0.324,0.326-0.525,0.776-0.525,1.27
						c0,0.989,0.804,1.793,1.796,1.793h13.47c3.853,0,6.978,3.124,6.978,6.978c0,1.927-0.78,3.671-2.044,4.934
						c-1.263,1.263-3.007,2.044-4.934,2.044H160.57c-3.853,0-6.978-3.124-6.978-6.978c0-1.927,0.781-3.671,2.044-4.934
						c1.263-1.263,3.007-2.044,4.934-2.044h7.672c0.494,0,0.942-0.202,1.268-0.525c0.324-0.326,0.525-0.773,0.525-1.268
						c0-0.992-0.804-1.796-1.793-1.796h-13.257c-2.653,0-4.803-2.149-4.803-4.803c0-1.327,0.537-2.527,1.406-3.399
						c0.87-0.867,2.07-1.406,3.396-1.406h28.673c0.497,0,0.945-0.202,1.268-0.525c0.326-0.324,0.525-0.773,0.525-1.268
						c0-0.992-0.802-1.793-1.793-1.793h-14.603c-3.853,0-6.978-3.124-6.978-6.978c0-1.927,0.781-3.67,2.044-4.934
						c1.263-1.263,3.007-2.044,4.934-2.044h1.172c0.494,0,0.942-0.202,1.268-0.525c0.324-0.326,0.525-0.773,0.525-1.268
						c0-0.992-0.804-1.796-1.793-1.796H152.69c-2.653,0-4.805-2.149-4.805-4.803c0-1.327,0.539-2.527,1.406-3.399
						c0.872-0.867,2.072-1.406,3.399-1.406h38.143c2.653,0,4.805,2.152,4.805,4.805c0,1.327-0.537,2.527-1.409,3.396
						c-0.867,0.87-2.07,1.406-3.396,1.406h-2.616c-0.495,0-0.945,0.202-1.268,0.525c-0.323,0.326-0.525,0.776-0.525,1.27
						c0,0.989,0.802,1.793,1.793,1.793h14.635c3.853,0,6.978,3.124,6.978,6.978c0,1.927-0.781,3.671-2.044,4.934
						c-1.263,1.263-3.007,2.044-4.934,2.044h-9.781C192.574,135.322,192.126,135.524,191.803,135.847z"/>
					<g>
						<text transform="matrix(1 0 0 1 154.3574 96.7517)" style="fill:#E3E4FF; font-family:'Gputeks-Bold'; font-size:14.174px;">SPACE</text>
						<text transform="matrix(1 0 0 1 157.0117 183.8048)" style="fill:#E3E4FF; font-family:'Gputeks-Bold'; font-size:14.174px;">GAME</text>
					</g>
					<g>
						<g>
							<g>
								
									<polygon style="fill:#FFFFFF;stroke:#E3E4FF;stroke-width:1.0662;stroke-linecap:round;stroke-linejoin:round;stroke-miterlimit:10;" points="
									185.769,140.833 191.762,150.925 186.094,154.701 180.123,147.951 								"/>
								<g>
									
										<path style="fill:#FFFFFF;stroke:#E3E4FF;stroke-width:1.0662;stroke-linecap:round;stroke-linejoin:round;stroke-miterlimit:10;" d="
										M187.107,157.534c1.351-1.052,2.949-2.84,4.408-5.045c2.701-4.079,2.696-8.839,2.696-8.839s-4.385,1.853-7.086,5.932
										c-1.46,2.205-2.483,4.373-2.924,6.028L187.107,157.534z"/>
									<path style="fill:#E3E4FF;" d="M194.194,144.105c0.017-0.292,0.017-0.455,0.017-0.455s-0.15,0.064-0.413,0.193
										c-0.657,0.325-2.018,1.064-3.474,2.255c0.418,0.412,0.916,0.818,1.478,1.19c0.561,0.372,1.13,0.672,1.673,0.896
										C194.002,146.378,194.151,144.837,194.194,144.105z"/>
									<path style="fill:#E3E4FF;" d="M187.417,157.283c-0.329,0.275-0.645,0.51-0.944,0.701
										c-0.423-0.194-0.854-0.433-1.281-0.715c-0.426-0.282-0.815-0.586-1.158-0.9c0.059-0.35,0.152-0.733,0.277-1.143
										c0.409,0.412,0.899,0.815,1.452,1.181C186.316,156.774,186.878,157.067,187.417,157.283z"/>
								</g>
							</g>
							<g>
								
									<polygon style="fill:#FFFFFF;stroke:#E3E4FF;stroke-width:1.0662;stroke-linecap:round;stroke-linejoin:round;stroke-miterlimit:10;" points="
									173.904,132.708 162.328,130.767 160.856,137.416 169.308,140.544 								"/>
								<g>
									
										<path style="fill:#FFFFFF;stroke:#E3E4FF;stroke-width:1.0662;stroke-linecap:round;stroke-linejoin:round;stroke-miterlimit:10;" d="
										M157.849,137.495c0.492-1.64,1.583-3.776,3.111-5.934c2.827-3.992,7.267-5.708,7.267-5.708s-0.143,4.758-2.97,8.75
										c-1.528,2.158-3.18,3.895-4.564,4.904L157.849,137.495z"/>
									<path style="fill:#E3E4FF;" d="M167.809,126.034c0.266-0.121,0.419-0.18,0.419-0.18s-0.005,0.163-0.031,0.455
										c-0.065,0.73-0.263,2.266-0.847,4.054c-0.536-0.24-1.094-0.558-1.644-0.947c-0.55-0.389-1.035-0.81-1.44-1.236
										C165.759,127.035,167.142,126.338,167.809,126.034z"/>
									<path style="fill:#E3E4FF;" d="M157.971,137.115c-0.138,0.406-0.242,0.786-0.313,1.133c0.333,0.324,0.712,0.64,1.13,0.936
										c0.417,0.296,0.841,0.548,1.258,0.755c0.305-0.182,0.628-0.406,0.965-0.671c-0.532-0.233-1.085-0.543-1.626-0.927
										C158.843,137.958,158.367,137.54,157.971,137.115z"/>
								</g>
							</g>
						</g>
						<g>
							<g>
								<g>
									
										<path style="fill:#FFFFFF;stroke:#E3E4FF;stroke-width:1.0662;stroke-linecap:round;stroke-linejoin:round;stroke-miterlimit:10;" d="
										M173.703,156.241l0.399,0.61c3.147-5.522,3.617-11.071,0.923-12.855c-2.637-1.746-7.41,0.706-11.225,5.548l0.735,0.177
										c-0.552,0.562-1.093,1.176-1.615,1.839l0.897,0.217c-0.061,0.089-0.122,0.179-0.182,0.271
										c-3.137,4.737-1.467,11.367-1.467,11.367s6.756-1.051,9.893-5.788c0.003-0.005,0.006-0.009,0.009-0.014l0.534,0.816
										C173.02,157.696,173.387,156.964,173.703,156.241z"/>
									<path style="opacity:0.3;fill:#E3E4FF;" d="M174.022,153.313l0.304,0.464c2.394-4.201,2.751-8.423,0.702-9.78
										c-2.006-1.329-5.637,0.537-8.54,4.22l0.559,0.135c-0.42,0.428-0.832,0.895-1.229,1.399l0.682,0.165
										c-0.047,0.068-0.093,0.137-0.139,0.206c-2.386,3.604-1.116,8.648-1.116,8.648s5.14-0.799,7.526-4.403
										c0.002-0.004,0.005-0.007,0.007-0.011l0.406,0.621C173.503,154.42,173.782,153.863,174.022,153.313z"/>
								</g>
								
									<path style="fill:#FFFFFF;stroke:#E3E4FF;stroke-width:1.0662;stroke-linecap:round;stroke-linejoin:round;stroke-miterlimit:10;" d="
									M178.118,152.243c4.721-3.159,10.104-8.785,14.818-15.903c8.721-13.17,6.979-29.681,6.979-29.681
									s-15.881,4.842-24.602,18.012c-4.714,7.118-7.791,14.27-8.857,19.85L178.118,152.243z"/>
								<path style="fill:#E3E4FF;" d="M200.016,108.232c-0.042-1.007-0.101-1.573-0.101-1.573s-0.545,0.167-1.488,0.521
									c-2.363,0.888-7.233,2.96-12.298,6.564c1.726,1.582,3.753,3.17,6.007,4.662c2.254,1.493,4.508,2.739,6.638,3.711
									C200.115,116.046,200.121,110.754,200.016,108.232z"/>
								<path style="fill:#E3E4FF;" d="M179.199,151.486c-1.141,0.836-2.25,1.536-3.309,2.09c-1.667-0.824-3.382-1.81-5.094-2.943
									c-1.712-1.134-3.289-2.328-4.698-3.541c0.097-1.192,0.308-2.486,0.633-3.863c1.694,1.578,3.687,3.151,5.908,4.622
									C174.859,149.322,177.085,150.542,179.199,151.486z"/>
							</g>
							<g>
								<path style="fill:#ABCAD6;" d="M190.529,129.21c-1.387,2.094-4.209,2.668-6.303,1.281s-2.668-4.209-1.281-6.304
									c1.387-2.094,4.209-2.668,6.304-1.281C191.343,124.294,191.916,127.116,190.529,129.21z"/>
								
									<path style="fill:#FFFFFF;stroke:#E3E4FF;stroke-width:1.0662;stroke-linecap:round;stroke-linejoin:round;stroke-miterlimit:10;" d="
									M190.69,128.967c-1.387,2.094-4.209,2.668-6.303,1.281c-2.094-1.387-2.668-4.209-1.281-6.304
									c1.387-2.094,4.209-2.668,6.304-1.281C191.504,124.05,192.077,126.873,190.69,128.967z"/>
								<path style="fill:#E3E4FF;" d="M189.637,128.27c-0.95,1.434-2.832,1.881-4.314,1.069c-0.081-0.043-0.161-0.092-0.24-0.144
									c-0.446-0.296-0.797-0.681-1.043-1.116c-0.592-1.042-0.589-2.371,0.117-3.437c0.775-1.171,2.174-1.683,3.467-1.39
									c0.376,0.084,0.744,0.239,1.086,0.465c0.202,0.134,0.384,0.286,0.545,0.454C190.309,125.253,190.505,126.959,189.637,128.27
									z"/>
							</g>
						</g>
					</g>
				</g>
				<g>
					<g>
						
							<rect x="315.59" y="69.686" style="fill:#FFFFFF;stroke:#E3E4FF;stroke-width:1.0662;stroke-linecap:round;stroke-linejoin:round;stroke-miterlimit:10;" width="10.144" height="36.868"/>
						
							<line style="fill:#FFFFFF;stroke:#E3E4FF;stroke-width:1.0662;stroke-linecap:round;stroke-linejoin:round;stroke-miterlimit:10;" x1="315.59" y1="77.758" x2="325.734" y2="77.758"/>
						
							<line style="fill:#FFFFFF;stroke:#E3E4FF;stroke-width:1.0662;stroke-linecap:round;stroke-linejoin:round;stroke-miterlimit:10;" x1="315.59" y1="81.467" x2="325.734" y2="81.467"/>
					</g>
					<g>
						
							<rect x="326.934" y="69.686" style="fill:#FFFFFF;stroke:#E3E4FF;stroke-width:1.0662;stroke-linecap:round;stroke-linejoin:round;stroke-miterlimit:10;" width="10.144" height="36.868"/>
						
							<line style="fill:#FFFFFF;stroke:#E3E4FF;stroke-width:1.0662;stroke-linecap:round;stroke-linejoin:round;stroke-miterlimit:10;" x1="326.934" y1="77.758" x2="337.078" y2="77.758"/>
						
							<line style="fill:#FFFFFF;stroke:#E3E4FF;stroke-width:1.0662;stroke-linecap:round;stroke-linejoin:round;stroke-miterlimit:10;" x1="326.934" y1="81.467" x2="337.078" y2="81.467"/>
					</g>
					<g>
						
							<rect x="339.774" y="70.559" transform="matrix(0.9921 -0.1252 0.1252 0.9921 -8.3186 43.8627)" style="fill:#FFFFFF;stroke:#E3E4FF;stroke-width:1.0662;stroke-linecap:round;stroke-linejoin:round;stroke-miterlimit:10;" width="10.144" height="35.123"/>
						
							<line style="fill:#FFFFFF;stroke:#E3E4FF;stroke-width:1.0662;stroke-linecap:round;stroke-linejoin:round;stroke-miterlimit:10;" x1="338.578" y1="78.961" x2="348.642" y2="77.691"/>
						
							<line style="fill:#FFFFFF;stroke:#E3E4FF;stroke-width:1.0662;stroke-linecap:round;stroke-linejoin:round;stroke-miterlimit:10;" x1="339.02" y1="82.466" x2="349.084" y2="81.197"/>
					</g>
					<rect x="303.532" y="112.204" style="fill:#E3E4FF;" width="80.312" height="8.783"/>
					
						<rect x="304" y="106.659" style="fill:#FFFFFF;stroke:#E3E4FF;stroke-width:1.0662;stroke-linecap:round;stroke-linejoin:round;stroke-miterlimit:10;" width="79.357" height="11.091"/>
				</g>
			</g>
		</g>
	</g>
</g>
<g id="OBJECTS">
	<g>
		<g>
			<path style="fill:#E3E4FF;" d="M450.997,399.605c0,2.736-50.299,4.954-112.346,4.954s-112.346-2.218-112.346-4.954
				c0-2.736,50.299-4.954,112.346-4.954S450.997,396.869,450.997,399.605z"/>
			<g>
				<g>
					<g>
						<g>
							<path style="fill:#4D4D4D;" d="M265.55,264.096c-1.393,0-2.523,1.129-2.523,2.523v11.986h-26.644V266.62
								c0-1.394-1.129-2.523-2.523-2.523c-1.394,0-2.523,1.129-2.523,2.523v132.043c0,1.393,1.129,2.523,2.523,2.523
								c1.394,0,2.523-1.13,2.523-2.523v-115.01h26.644v115.01c0,1.393,1.13,2.523,2.523,2.523c1.393,0,2.523-1.13,2.523-2.523
								V266.62C268.073,265.226,266.943,264.096,265.55,264.096z"/>
							<path style="fill:#4D4D4D;" d="M442.781,264.096c-1.393,0-2.523,1.129-2.523,2.523v11.986h-26.645V266.62
								c0-1.394-1.13-2.523-2.523-2.523c-1.393,0-2.523,1.129-2.523,2.523v132.043c0,1.393,1.13,2.523,2.523,2.523
								c1.393,0,2.523-1.13,2.523-2.523v-115.01h26.645v115.01c0,1.393,1.13,2.523,2.523,2.523c1.393,0,2.523-1.13,2.523-2.523
								V266.62C445.304,265.226,444.174,264.096,442.781,264.096z"/>
						</g>
						<g>
							<path style="fill:#DAB9B2;" d="M450.997,268.556H227.991c-1.394,0-2.524-1.13-2.524-2.523c0-1.393,1.13-2.523,2.524-2.523
								h223.006c1.393,0,2.523,1.13,2.523,2.523C453.52,267.426,452.39,268.556,450.997,268.556z"/>
						</g>
					</g>
					<g>
						<g>
							<rect x="278.974" y="254.64" style="fill:#1E0D62;" width="27.695" height="8.892"/>
							<g>
								<rect x="233.86" y="254.64" style="fill:#463682;" width="51.191" height="8.892"/>
								<g>
									<g>
										<path style="fill:#ED1E79;" d="M237.731,259.098c0,0.57-0.462,1.032-1.032,1.032c-0.57,0-1.032-0.462-1.032-1.032
											s0.462-1.032,1.032-1.032C237.269,258.065,237.731,258.527,237.731,259.098z"/>
										<rect x="239.038" y="258.409" style="fill:#0F0530;" width="13.142" height="1.376"/>
									</g>
									<g>
										<path style="fill:#1ED1ED;" d="M272.152,259.098c0,0.212-0.172,0.384-0.384,0.384c-0.212,0-0.384-0.172-0.384-0.384
											c0-0.212,0.172-0.384,0.384-0.384C271.98,258.713,272.152,258.885,272.152,259.098z"/>
										<circle style="fill:#1ED1ED;" cx="273.716" cy="259.098" r="0.384"/>
										<path style="fill:#1ED1ED;" d="M276.048,259.098c0,0.212-0.172,0.384-0.384,0.384c-0.212,0-0.384-0.172-0.384-0.384
											c0-0.212,0.172-0.384,0.384-0.384C275.876,258.713,276.048,258.885,276.048,259.098z"/>
									</g>
								</g>
							</g>
						</g>
						<g>
							<g>
								<g>
									<rect x="340.081" y="241.091" style="fill:#463682;" width="11.737" height="16.792"/>
									<rect x="351.818" y="241.091" style="fill:#1E0D62;" width="2.739" height="16.792"/>
								</g>
								<g>
									<rect x="334.385" y="257.883" style="fill:#463682;" width="23.129" height="5.649"/>
									<rect x="357.514" y="257.883" style="fill:#1E0D62;" width="2.716" height="5.649"/>
								</g>
							</g>
							<g>
								<g>
									<g>
										<path style="fill:#1E0D62;" d="M410.93,241.091h-12.72v-96.244h12.719c1.709,0,3.095,1.386,3.095,3.095v90.055
											C414.025,239.706,412.639,241.091,410.93,241.091z"/>
										<path style="fill:#463682;" d="M406.186,241.091H273.975c-1.736,0-3.144-1.407-3.144-3.144V147.99
											c0-1.736,1.407-3.144,3.144-3.144h132.211c1.736,0,3.143,1.407,3.143,3.143v89.957
											C409.33,239.684,407.922,241.091,406.186,241.091z"/>
									</g>
									<path style="fill:#77C5FF;" d="M396.839,231.008H282.446c-0.758,0-1.372-0.614-1.372-1.372v-72.028
										c0-0.758,0.614-1.372,1.372-1.372h114.392c0.758,0,1.372,0.614,1.372,1.372v72.028
										C398.21,230.394,397.596,231.008,396.839,231.008z"/>
									<path style="fill:#59B9FF;" d="M282.585,231.008H396.7c0.834,0,1.51-0.676,1.51-1.51v-71.752
										c0-0.015-0.004-0.028-0.004-0.043l-117.111,72.001C281.197,230.44,281.821,231.008,282.585,231.008z"/>
								</g>
								<g>
									<path style="fill:none;stroke:#E3E4FF;stroke-linecap:round;stroke-linejoin:round;stroke-miterlimit:10;" d="
										M307.935,176.779c0,2.837-2.3,5.137-5.137,5.137c-2.837,0-5.138-2.3-5.138-5.137c0-2.837,2.3-5.137,5.138-5.137
										C305.635,171.642,307.935,173.942,307.935,176.779z"/>
									<path style="fill:none;stroke:#E3E4FF;stroke-linecap:round;stroke-linejoin:round;stroke-miterlimit:10;" d="
										M371.429,171.199c0,1.713-1.389,3.102-3.102,3.102c-1.714,0-3.103-1.389-3.103-3.102c0-1.714,1.389-3.103,3.103-3.103
										C370.04,168.096,371.429,169.485,371.429,171.199z"/>
									<g>
										
											<line style="fill:none;stroke:#E3E4FF;stroke-linecap:round;stroke-linejoin:round;stroke-miterlimit:10;" x1="375.189" y1="215.677" x2="384.53" y2="225.019"/>
										
											<line style="fill:none;stroke:#E3E4FF;stroke-linecap:round;stroke-linejoin:round;stroke-miterlimit:10;" x1="375.189" y1="225.019" x2="384.53" y2="215.677"/>
									</g>
									<g>
										
											<line style="fill:none;stroke:#E3E4FF;stroke-linecap:round;stroke-linejoin:round;stroke-miterlimit:10;" x1="297.66" y1="211.007" x2="304.744" y2="218.09"/>
										
											<line style="fill:none;stroke:#E3E4FF;stroke-linecap:round;stroke-linejoin:round;stroke-miterlimit:10;" x1="297.66" y1="218.09" x2="304.744" y2="211.007"/>
									</g>
									<g>
										<rect x="321.146" y="190.217" style="fill:#E3E4FF;" width="1.835" height="9.314"/>
										<rect x="324.265" y="190.217" style="fill:#E3E4FF;" width="1.835" height="9.314"/>
										<rect x="327.384" y="190.217" style="fill:#E3E4FF;" width="1.835" height="9.314"/>
										<rect x="330.503" y="190.217" style="fill:#E3E4FF;" width="1.835" height="9.314"/>
										<rect x="333.622" y="190.217" style="fill:#E3E4FF;" width="1.835" height="9.314"/>
										<rect x="336.742" y="190.217" style="fill:#E3E4FF;" width="1.835" height="9.314"/>
										<rect x="339.861" y="190.217" style="fill:#E3E4FF;" width="1.835" height="9.314"/>
										<rect x="342.98" y="190.217" style="fill:#E3E4FF;" width="1.835" height="9.314"/>
										<rect x="346.099" y="190.217" style="fill:#E3E4FF;" width="1.835" height="9.314"/>
										
											<rect x="349.218" y="190.217" style="fill:none;stroke:#E3E4FF;stroke-width:0.5;stroke-miterlimit:10;" width="1.835" height="9.314"/>
										
											<rect x="352.337" y="190.217" style="fill:none;stroke:#E3E4FF;stroke-width:0.5;stroke-miterlimit:10;" width="1.835" height="9.314"/>
										
											<rect x="355.457" y="190.217" style="fill:none;stroke:#E3E4FF;stroke-width:0.5;stroke-miterlimit:10;" width="1.835" height="9.314"/>
										
											<rect x="358.576" y="190.217" style="fill:none;stroke:#E3E4FF;stroke-width:0.5;stroke-miterlimit:10;" width="1.835" height="9.314"/>
									</g>
								</g>
							</g>
						</g>
					</g>
				</g>
				<g>
					<rect x="252.248" y="292.812" style="fill:#463682;" width="55.165" height="108.373"/>
					<g>
						<rect x="307.412" y="292.812" style="fill:#1E0D62;" width="38.537" height="108.373"/>
						<g>
							
								<line style="fill:none;stroke:#1E0D62;stroke-width:1.0662;stroke-miterlimit:10;" x1="252.248" y1="319.906" x2="307.412" y2="319.906"/>
							
								<line style="fill:none;stroke:#1E0D62;stroke-width:1.0662;stroke-miterlimit:10;" x1="252.248" y1="346.999" x2="307.412" y2="346.999"/>
							
								<line style="fill:none;stroke:#1E0D62;stroke-width:1.0662;stroke-miterlimit:10;" x1="252.248" y1="374.092" x2="307.412" y2="374.092"/>
						</g>
						<g>
							<path style="fill:#1E0D62;" d="M280.955,307.386c0,1.094-0.887,1.981-1.981,1.981c-1.094,0-1.98-0.887-1.98-1.981
								c0-1.094,0.887-1.981,1.98-1.981C280.068,305.405,280.955,306.292,280.955,307.386z"/>
							<path style="fill:#1E0D62;" d="M280.955,333.208c0,1.094-0.887,1.981-1.981,1.981c-1.094,0-1.98-0.887-1.98-1.981
								s0.887-1.981,1.98-1.981C280.068,331.227,280.955,332.114,280.955,333.208z"/>
							<path style="fill:#1E0D62;" d="M280.955,360.137c0,1.094-0.887,1.981-1.981,1.981c-1.094,0-1.98-0.887-1.98-1.981
								s0.887-1.981,1.98-1.981C280.068,358.156,280.955,359.043,280.955,360.137z"/>
							<path style="fill:#1E0D62;" d="M280.955,388.23c0,1.094-0.887,1.981-1.981,1.981c-1.094,0-1.98-0.887-1.98-1.981
								c0-1.094,0.887-1.981,1.98-1.981C280.068,386.25,280.955,387.137,280.955,388.23z"/>
						</g>
					</g>
				</g>
			</g>
		</g>
		<g>
			<path style="fill:#E3E4FF;" d="M190.975,454.569c0,2.736-30.699,4.954-68.568,4.954c-37.869,0-68.568-2.218-68.568-4.954
				c0-2.736,30.699-4.954,68.568-4.954C160.276,449.615,190.975,451.833,190.975,454.569z"/>
			<ellipse style="fill:#E3E4FF;" cx="234.341" cy="440.076" rx="36.525" ry="6.064"/>
			<g>
				<g>
					<g>
						<path style="fill:#1C2E35;" d="M207.22,422.131l-0.349,15.722c0,0,2.217,2.356,7.622,2.217
							c5.405-0.139,28.272-10.664,30.628-16.35c0,0-4.989-6.517-10.256-3.746c-5.266,2.772-13.982,6.447-15.922,2.427
							L207.22,422.131z"/>
						<path style="fill:#132126;" d="M214.65,422.994l-7.405-0.592l-0.373,15.45c0,0,2.217,2.356,7.622,2.217
							c0.109-0.003,0.237-0.016,0.36-0.027C212.733,432.823,213.688,426.799,214.65,422.994z"/>
					</g>
					<path style="fill:#584CB3;" d="M173.754,349.865c0,0,34.953-29.249,47.383-25.739c12.431,3.51,9.799,47.383,5.265,64.933
						c0,0-7.02,31.297-7.458,33.344c0,0-7.897,1.609-11.7,0c0,0-3.071-33.962,0.146-43.524c0,0,0.878-7.661,0.146-16.875
						c0,0-22.814,27.055-47.237,12.723L173.754,349.865z"/>
					<path style="fill:#6C5DDA;" d="M135.804,385.22c0,0,13.235,17.732,33.417,17.293c20.182-0.439,57.036-32.613,57.036-32.613
						s-2.925,24.715-1.024,35.83c1.901,11.115,2.486,22.376,2.486,22.376s9.506,0.293,15.502-4.095c0,0,4.095-47.237,4.826-54.111
						s2.632-39.048-10.237-40.217c-12.87-1.17-62.885,25.885-62.885,25.885L135.804,385.22z"/>
					<path style="fill:none;stroke:#9082F5;stroke-width:0.7553;stroke-miterlimit:10;" d="M169.221,366.683
						c0,0,9.326,7.354,26.015-2.904c16.689-10.258,35.116-30.22,40.161-13.987c5.045,16.233-3.729,55.281,0,71.733"/>
					<path style="fill:#FFAD93;" d="M176.073,283.309c0,0,0.679-11.612,10.624-15.196c9.945-3.583,14.448,1.924,15.633,4.435
						L176.073,283.309z"/>
					<polygon style="fill:#FFAD93;" points="184.284,296.047 190.975,284.091 176.989,281.98 174.924,288.819 180.884,296.047 					
						"/>
					<polygon style="fill:#BD002D;" points="154.157,310.964 174.924,288.819 184.284,296.047 164.979,331.7 					"/>
					<polygon style="fill:#FFAD93;" points="114.086,286.833 116.188,270.691 137.12,272.355 138.436,286.833 					"/>
					<path style="fill:#FF8E6A;" d="M137.12,272.355l-1.749-0.139l-3.254,3.587c0,0,2.134,2.19,5.66,3.774L137.12,272.355z"/>
					<g>
						<polygon style="fill:#FF8E6A;" points="148.16,243.333 151.151,252.282 148.16,253.474 						"/>
						<g>
							<ellipse style="fill:#FFAD93;" cx="128.699" cy="250.511" rx="20.267" ry="25.66"/>
							<path style="fill:#FF8E6A;" d="M130.289,256.109c-0.241-0.679-0.41-1.396-0.567-2.127c0.253-0.3,0.633-0.521,0.988-0.522
								c0.385-0.01,0.813,0.206,1.17,0.528c0.379,0.305,0.689,0.703,0.993,1.115c-0.139-0.497-0.387-0.957-0.701-1.391
								c-0.32-0.416-0.787-0.822-1.427-0.893c-0.653-0.073-1.225,0.25-1.636,0.676c-0.41,0.444-0.627,0.995-0.757,1.532
								c-0.198,1.087-0.099,2.169,0.226,3.174c0.149,0.506,0.379,0.988,0.661,1.434c0.295,0.427,0.656,0.869,1.156,1.041
								c-0.394-0.33-0.633-0.767-0.798-1.229c-0.178-0.454-0.31-0.925-0.395-1.405c-0.18-0.952-0.221-1.939-0.044-2.843
								c0.014-0.069,0.044-0.129,0.062-0.197c0.056,0.465,0.139,0.928,0.29,1.383c0.246,0.697,0.626,1.397,1.237,1.897
								c0.593,0.52,1.415,0.717,2.124,0.587C131.438,258.475,130.708,257.383,130.289,256.109z"/>
						</g>
						<g>
							<path style="fill:#2E170A;" d="M146.323,247.701c0.183,1.07-0.13,2.017-0.7,2.115c-0.57,0.098-1.18-0.691-1.364-1.762
								c-0.183-1.07,0.13-2.017,0.7-2.115C145.529,245.842,146.14,246.631,146.323,247.701z"/>
							<path style="fill:#2E170A;" d="M141.613,245.04c0.095-2.017,1.366-3.816,3.276-4.604c-0.133-0.384-0.265-0.768-0.398-1.152
								c-2.525,0.743-4.406,2.899-4.814,5.547C140.323,244.9,140.968,244.97,141.613,245.04z"/>
							<g>
								<path style="fill:#2E170A;" d="M146.047,263.797c-0.176,0.341-0.341,0.672-0.506,1.002
									c-0.286-0.077-0.561-0.176-0.837-0.297c-2.862-1.321-3.996-4.657-4.051-4.8c-0.088-0.286,0.066-0.595,0.352-0.694
									c0.286-0.099,0.594,0.055,0.694,0.341c0.011,0.033,1.046,3.038,3.468,4.15C145.452,263.632,145.738,263.731,146.047,263.797
									z"/>
							</g>
						</g>
					</g>
					<path style="fill:#1C2E35;" d="M133.171,250.511c0,0,4.387-5.138,2.632-12.377c0,0,8.994,0.877,13.162-8.555
						c4.168-9.433-3.51-17.769-7.897-18.646c-4.387-0.878-4.607-0.878-7.897,3.291c-3.291,4.168-6.142-1.316-9.433,2.852
						c-3.291,4.168-2.194,7.217-7.678,7.776c-5.484,0.56-16.014,5.386-15.136,15.038c0.877,9.652,6.686,44.306,33.397,32.244
						c0,0-2.466-2.849-3.343-8.333c0,0-4.607-0.658-4.716-7.02C126.151,250.418,129.881,248.19,133.171,250.511z"/>
					<path style="fill:#FFFFFF;" d="M110.064,289.612c0,0,0-5.923,3.583-6.508c3.583-0.585,19.597-0.585,23.765,0
						s3.729,5.85,3.729,5.85S121.691,292.318,110.064,289.612z"/>
					<path style="fill:#D00032;" d="M143.372,288.917h-31.04c0,0-5.923-0.11-8.775,7.568c-2.852,7.678,4.607,36.525,13.272,55.171
						c8.665,18.646,18.975,33.563,18.975,33.563s15.356,1.426,32.795-13.71c8.911-7.734,10.95-14.352,10.812-18.975L143.372,288.917
						z"/>
					<path style="fill:#1A2F34;" d="M197.007,271.148c0,0-8.007-2.303-12.285,1.536c-4.278,3.839-14.259,17.534-11.626,17.981
						c2.632,0.446,11.517-2.931,15.575-1.845c4.058,1.085,4.058,8.653,5.594,9.97c1.536,1.316,12.504-7.568,15.027-11.955
						C211.815,282.446,217.737,275.755,197.007,271.148z"/>
					<path style="fill:#385A66;" d="M184.723,286.665c-2.085,1.375-8.26,2.426-12.014,2.96c-0.117,0.597-0.012,0.973,0.388,1.04
						c2.632,0.446,11.517-2.931,15.575-1.846c2.415,0.646,3.391,3.585,4.111,6.139c2.027-3.509,1.499-6.216,0.606-7.467
						C192.291,285.956,187.794,284.64,184.723,286.665z"/>
					<path style="fill:#FFAD93;" d="M176.073,283.309c0,0,14.134-7.152,16.62-7.81c2.486-0.658,0.804-2.413-1.243-2.413
						c-2.047,0-8.501,0.776-8.501,0.776S177.954,279.347,176.073,283.309z"/>
					<path style="fill:#FBB03B;" d="M192.193,276.923c0.87,1.206,0.341,3.074-1.181,4.173c-1.523,1.099-3.463,1.012-4.333-0.194
						s-0.341-3.074,1.181-4.173C189.383,275.631,191.323,275.717,192.193,276.923z"/>
					<path style="fill:#39B54A;" d="M202.703,277.036c0.508,0.704,0.199,1.795-0.69,2.436s-2.022,0.591-2.53-0.113
						c-0.508-0.704-0.199-1.795,0.69-2.437C201.062,276.281,202.194,276.332,202.703,277.036z"/>
					<path style="fill:#E30036;" d="M202.446,282.543c0.508,0.704,0.199,1.795-0.69,2.437c-0.889,0.642-2.022,0.591-2.53-0.113
						c-0.508-0.704-0.199-1.795,0.69-2.437C200.805,281.789,201.938,281.839,202.446,282.543z"/>
					<path style="fill:#FFAD93;" d="M190.975,301.092c0,0,5.813-10.53,6.8-17.878c0,0,2.742-2.961,3.62,6.581
						c0,0,8.136-6.8,10.649-12.065c0,0,4.048,3.614,3.5,6.962c0,0,0.439,3.458,0.548,4.719c0.11,1.261-1.187,5.649-4.048,8.5
						c-2.862,2.852-13.062,12.285-13.062,12.285h-3.29L190.975,301.092z"/>
					<path style="fill:#E30036;" d="M171.67,325.661c0,0-13.93-39.047-28.299-36.744c-14.368,2.303-3.948,26.982-3.948,26.982
						s25.227,51.88,38.06,40.254c12.833-11.626,21.498-45.957,21.498-45.957l-8.007-9.104L171.67,325.661z"/>
					<g>
						<path style="fill:#BD002D;" d="M175.598,320.662c-1.606,2.456-3.365,4.797-5.111,7.147c-1.793,2.315-3.572,4.639-5.507,6.846
							c1.605-2.457,3.365-4.797,5.111-7.147C171.884,325.194,173.665,322.87,175.598,320.662z"/>
					</g>
					<g>
						<path style="fill:#1C2E35;" d="M227.719,428.106v14.917c0,0,2.34,2.486,8.044,2.34c5.704-0.146,29.834-11.253,32.32-17.253
							c0,0-5.265-6.878-10.822-3.953c-5.557,2.925-11.992,4.095-14.04-0.146L227.719,428.106z"/>
						<path style="fill:#132126;" d="M236.277,425.846l-8.558,2.261v14.917c0,0,2.34,2.486,8.044,2.34
							c0.115-0.003,0.25-0.017,0.38-0.029C233.904,437.715,235.262,429.861,236.277,425.846z"/>
					</g>
					<path style="fill:none;stroke:#584CB3;stroke-width:1.5941;stroke-miterlimit:10;" d="M181.505,357.177
						c0,0,9.798-1.901,15.21,8.336"/>
					<path style="fill:#D2D8DA;" d="M117.81,229.098c0.284-1.253,1.278-2.276,2.436-2.858c1.176-0.57,2.527-0.784,3.844-0.596
						c1.336,0.195,2.485,0.792,3.651,1.187c1.146,0.42,2.352,0.685,3.363,0.235c2.094-0.843,2.447-4.157,5.062-5.361
						c1.21-0.599,2.552-0.741,3.827-0.669c1.282,0.094,2.529,0.359,3.736,0.734c-1.249-0.181-2.501-0.357-3.743-0.304
						c-1.233,0.014-2.475,0.238-3.5,0.834c-1.048,0.576-1.718,1.559-2.337,2.654c-0.319,0.542-0.651,1.1-1.07,1.628
						c-0.425,0.518-0.961,1.019-1.631,1.291c-0.661,0.28-1.399,0.34-2.075,0.253c-0.681-0.085-1.317-0.285-1.917-0.519
						c-1.197-0.466-2.321-1.045-3.478-1.302c-1.168-0.247-2.429-0.128-3.554,0.324C119.285,227.054,118.285,227.915,117.81,229.098z
						"/>
				</g>
				<g>
					<path style="fill:#F7931E;" d="M74.893,302.446c0,0,9.214-13.162,25.008-13.162c15.795,0,42.119,19.743,52.648,58.79
						c10.53,39.047,14.828,54.428,14.828,54.428s21.733-22.575,31.239-17.574c7.707,4.054,12.723,53.965-58.79,68.443
						c-71.514,14.478-91.696-34.66-84.676-82.044C62.169,323.944,74.893,302.446,74.893,302.446z"/>
					<path style="fill:#F77111;" d="M198.907,385.11c-0.097-0.066-0.194-0.13-0.291-0.181c-0.463-0.243-0.962-0.403-1.479-0.522
						c-1.005,11.949-5.297,31.373-21.834,38.619c-6.264,2.745-11.788,2.678-16.42-0.197c-5.924-3.678-16.144-15.891-18.035-56.368
						c-1.438-30.757-13.322-54.587-33.465-67.1c-9.396-5.837-19.434-4.891-27.371-2.31c0,0-0.001,0.001-0.001,0.001
						c-0.304,0.26-0.593,0.516-0.871,0.769c-0.046,0.042-0.09,0.083-0.135,0.125c-0.232,0.213-0.456,0.423-0.669,0.629
						c-0.04,0.038-0.08,0.077-0.119,0.115c-0.502,0.489-0.952,0.954-1.343,1.378c0,0,0,0-0.001,0.001
						c7.966-3.334,19.222-5.651,29.583,0.784c19.637,12.199,31.229,35.529,32.638,65.691c0.828,17.718,4.379,48.786,18.861,57.777
						c2.664,1.654,5.573,2.481,8.706,2.481c2.926-0.001,6.048-0.722,9.344-2.167c17.516-7.675,21.937-27.132,22.926-39.395
						C198.92,385.223,198.912,385.176,198.907,385.11z"/>
					<path style="fill:#F77111;" d="M192.62,384.595c-10.511,2.613-25.243,17.908-25.243,17.908S180.577,399.611,192.62,384.595z"/>
					<path style="fill:#ED8916;" d="M139.825,453.371c27.136-5.494,43.083-15.852,52.076-26.903
						c-21.391,12.155-53.327,15.712-81.088,14.225c-15.521-0.832-26.965,0.878-34.718,2.908
						C89.822,454.545,110.507,459.307,139.825,453.371z"/>
				</g>
			</g>
		</g>
	</g>
</g>
</svg>
